<?xml version="1.0" encoding="UTF-8"?>
<svg id="Layer_1" data-name="Layer 1" xmlns="http://www.w3.org/2000/svg" xmlns:xlink="http://www.w3.org/1999/xlink" viewBox="0 0 400 138">
  <defs>
    <style>
      .cls-1 {
        fill: #009ceb;
      }

      .cls-2 {
        fill: #00386e;
      }

      .cls-3 {
        fill: url(#New_Gradient_Swatch_4);
      }

      .cls-4 {
        fill: #202546;
      }
    </style>
    <linearGradient id="New_Gradient_Swatch_4" data-name="New Gradient Swatch 4" x1="225.57" y1="40.58" x2="154.41" y2="40.58" gradientUnits="userSpaceOnUse">
      <stop offset="0" stop-color="#6e2995"/>
      <stop offset="1" stop-color="#ff8300"/>
    </linearGradient>
  </defs>
  <g>
    <path class="cls-4" d="M203.31,38.18l-1.71,2.96,1.71,2.96,6.77,11.73,1.39,2.41,6.39,11.07.56.96.72,1.26.76,1.3c-1.02.04-1.9.63-2.35,1.49l-.78-1.33-.73-1.28-.47-.8-6.5-11.27-1.39-2.41-6.77-11.72-1.71-2.97h-36.83c.24-.4.38-.88.38-1.39s-.13-.99-.38-1.39h36.83l1.71-2.97,6.77-11.72,1.39-2.41,5.95-10.31,1.4-2.41.04-.09,1.33-2.31.1-.17s.03.04.06.07c.51.56,1.25.91,2.06.91.07,0,.13,0,.2-.01.12,0,.24-.02.36-.04l-.19.33-1.12,1.95-.27.46-1.12,1.95-6.39,11.07-1.39,2.41-6.77,11.73Z"/>
    <path class="cls-4" d="M220.01,78.39h1.49l.46-.79c-.5.49-1.19.79-1.95.79ZM217.23,5.56c0-.62.21-1.21.56-1.67h-39.29l-2.91,5.05-15.39,26.65-1.95,3.37c.47-.38,1.07-.6,1.72-.6.42,0,.82.1,1.18.27.3.14.58.33.81.57l.9-1.56.51-.89,14.97-25.92,2.08-3.6h37.37c-.23-.31-.41-.68-.49-1.09-.04-.19-.07-.38-.07-.58ZM157.23,40.74l-.23.4.23.4c-.02-.13-.03-.27-.03-.4s.01-.27.03-.4ZM217.52,76.84c-.19-.37-.29-.79-.29-1.23,0-.18.01-.34.04-.51.01-.02.01-.03.01-.04h-36.87l-2.61-4.53-14.4-24.93-.03-.07-1.35-2.32-.07-.12s-.04.03-.06.04c-.39.38-.88.64-1.42.74-.17.03-.33.04-.51.04-.66,0-1.26-.22-1.72-.6l1.95,3.37,15.03,26.04,3.27,5.66h41.52c-1.09,0-2.03-.63-2.49-1.55ZM239.8,35.59l-15.39-26.65-1.67-2.89c-.09.54-.34,1.03-.71,1.41-.37.4-.86.68-1.39.8-.02.01-.04.01-.08.02-.11.02-.23.04-.36.04l.17.29.27.46,1.03,1.8.36.61,14.6,25.27,2.52,4.38-2.52,4.38-14.42,24.97-.18.31-1.23,2.13c.48.14.91.42,1.23.78.47.5.76,1.17.76,1.89,0,.24-.03.49-.09.71l2.07-3.59,15.03-26.04,3.2-5.55-3.2-5.55Z"/>
    <path class="cls-4" d="M240.03,35.58c-.08,0-.16,0-.22.01-1.2.04-2.29.47-3.17,1.17-.43.31-.81.71-1.12,1.16l-13.48-7.78-1.39-.8-1.39-.8-1.39-.8-6.39-3.69-2.4-1.39-5.96-3.44-1.39-.8-1.39-.8-1.43-.82-14.24-8.23c.27-.41.48-.86.63-1.33.17-.52.26-1.08.26-1.67s-.09-1.13-.24-1.67c-.71-2.26-2.82-3.89-5.31-3.89-3.07,0-5.56,2.49-5.56,5.56,0,1.28.43,2.45,1.16,3.38.69.89,1.65,1.56,2.76,1.89.36.12.73.2,1.11.23v59.04c-.58.06-1.13.2-1.65.42-1.07.44-1.97,1.22-2.58,2.2-.5.83-.8,1.82-.8,2.88,0,3.07,2.49,5.56,5.56,5.56,2.06,0,3.85-1.11,4.81-2.78.48-.81.74-1.77.74-2.78,0-.19-.01-.38-.03-.56-.06-.57-.19-1.1-.4-1.6l13.26-7.66,1.39-.8,1.39-.8,1.4-.8,6.52-3.76,2.4-1.39,6.39-3.69,1.39-.8,1.39-.8,1.39-.8,13.48-7.78c.31.44.69.85,1.12,1.16.88.7,1.97,1.12,3.17,1.17.07.01.14.01.22.01,3.07,0,5.56-2.49,5.56-5.56s-2.49-5.56-5.56-5.56ZM234.52,41.72l-12.49,7.2-1.39.8-1.39.81-1.39.8-7.78,4.49-2.4,1.39-7.92,4.56-1.4.81-1.38.8-1.38.8-12.22,7.05c-.36-.28-.73-.52-1.16-.7V10.63c.09-.03.16-.08.23-.12l13.66,7.88,1.42.82,1.39.8,1.39.81,7.35,4.24,2.4,1.39,7.78,4.49,1.39.81,1.39.8,1.39.8,12.49,7.2c-.02.19-.06.38-.06.58s.03.39.06.58Z"/>
    <circle class="cls-4" cx="200" cy="41.14" r="4.45"/>
    <path class="cls-3" d="M222.22,70.49c-.06-.02-.11-.04-.18-.07V10.74c.96-.38,1.78-1,2.38-1.8.73-.93,1.16-2.11,1.16-3.38,0-3.07-2.49-5.56-5.56-5.56-2.49,0-4.6,1.63-5.31,3.89-.16.53-.24,1.09-.24,1.67s.09,1.13.24,1.67c.03.11.08.23.12.34l-15.92,9.22-2.77,1.6-13.9,8.04-2.78,1.61-15.66,9.06c-.13-.12-.28-.24-.42-.36-.88-.69-1.98-1.11-3.18-1.16-.08-.01-.14-.01-.22-.01-3.07,0-5.56,2.49-5.56,5.56s2.49,5.56,5.56,5.56c.08,0,.14,0,.22-.01,1.19-.04,2.28-.46,3.15-1.13l.07.04,16.04,9.26,2.78,1.6,13.38,7.73,2.77,1.6,15.73,9.08.31.18.07.03c-.02.17-.03.34-.03.52,0,1.01.27,1.97.74,2.78.97,1.67,2.76,2.78,4.81,2.78,3.07,0,5.56-2.49,5.56-5.56,0-1.06-.29-2.05-.8-2.88-.6-.99-1.49-1.77-2.56-2.23ZM217.79,3.89c.51-.68,1.31-1.11,2.22-1.11,1.53,0,2.78,1.25,2.78,2.78,0,.17-.01.33-.04.49-.09.54-.34,1.03-.71,1.41-.37.4-.86.68-1.39.8-.02.01-.04.01-.08.02-.11.02-.23.04-.36.04-.07.01-.13.01-.2.01-.81,0-1.55-.36-2.06-.91-.02-.02-.04-.04-.06-.07-.04-.04-.08-.09-.11-.13-.23-.31-.41-.68-.49-1.09-.04-.19-.07-.38-.07-.58,0-.62.21-1.21.56-1.67ZM159.97,43.92c-.66,0-1.26-.22-1.72-.6-.54-.43-.92-1.06-1.02-1.78-.02-.13-.03-.27-.03-.4s.01-.27.03-.4c.1-.72.48-1.35,1.02-1.78.47-.38,1.07-.6,1.72-.6.42,0,.82.1,1.18.27.3.14.58.33.81.57.11.12.22.24.31.39.04.06.08.11.1.17.24.4.38.88.38,1.39s-.13.99-.38,1.39c-.11.21-.26.39-.41.56-.02.01-.04.03-.06.04-.39.38-.88.64-1.42.74-.17.03-.33.04-.51.04ZM216.04,71.7c-.22.22-.42.47-.6.73l-14.29-8.25-2.79-1.6-16.13-9.32-2.78-1.6-14.39-8.31c.12-.27.21-.54.29-.83.04-.18.09-.37.11-.56.04-.27.07-.54.07-.83,0-.08,0-.14-.01-.22-.01-.4-.07-.79-.17-1.17-.02-.1-.06-.19-.09-.29l14.19-8.19,2.78-1.6,16.71-9.65,2.78-1.6,14.7-8.48.09-.06c.41.34.87.61,1.36.82.36.14.73.26,1.12.32.09.02.18.03.27.04v59.03c-.29.04-.57.1-.83.18-.19.07-.37.13-.56.2-.53.23-1.03.53-1.47.91-.12.1-.23.21-.36.32ZM222.7,76.32c-.13.49-.39.93-.74,1.28-.5.49-1.19.79-1.95.79-1.09,0-2.03-.63-2.49-1.55-.19-.37-.29-.79-.29-1.23,0-.18.01-.34.04-.51.01-.02.01-.03.01-.04.06-.27.14-.51.27-.73.44-.86,1.32-1.45,2.35-1.49h.11c.22,0,.43.02.63.08.06.01.1.02.16.03.48.14.91.42,1.23.78.47.5.76,1.17.76,1.89,0,.24-.03.49-.09.71Z"/>
  </g>
  <g>
    <polygon class="cls-1" points="135.68 103.62 135.68 96.98 132.33 96.98 132.33 106.92 142.27 106.92 142.27 103.62 135.68 103.62"/>
    <polygon class="cls-2" points="148.92 90.33 132.33 90.33 132.33 95.27 135.63 95.27 135.63 93.62 145.62 93.62 145.62 103.62 143.98 103.62 143.98 106.92 148.92 106.92 148.92 90.33"/>
    <g>
      <path class="cls-2" d="M153.33,90.51h5.06v12.18h7.23v4.18h-12.29v-16.35h0Z"/>
      <path class="cls-2" d="M167.8,90.51h12.7v4.18h-7.65v2.06h6.53v3.88h-6.53v6.23h-5.06v-16.35Z"/>
    </g>
    <path class="cls-1" d="M193.5,106.98h-9.18v-16.53h9.18v1.06h-8v6.23h7.53v1.06h-7.53v7.06h8v1.12Z"/>
    <path class="cls-1" d="M209.5,106.98h-1.18l-9.94-14.65h-.12c.12,1.76.12,3.06.12,3.94v10.7h-1.06v-16.53h1.18l9.94,14.65h.06c-.06-1.35-.12-2.65-.12-3.88v-10.76h1.12v16.53h0Z"/>
    <path class="cls-1" d="M223.38,106.98h-9.18v-16.53h9.18v1.06h-8v6.23h7.53v1.06h-7.53v7.06h8v1.12Z"/>
    <path class="cls-1" d="M228.38,99.8v7.18h-1.18v-16.53h4c2.06,0,3.59.35,4.59,1.12,1,.76,1.47,1.88,1.47,3.41,0,1.12-.29,2.06-.88,2.82s-1.47,1.29-2.71,1.65l4.53,7.53h-1.41l-4.29-7.18h-4.12ZM228.38,98.8h3.18c1.41,0,2.53-.29,3.29-.94.76-.65,1.18-1.53,1.18-2.76s-.35-2.18-1.12-2.76-2-.88-3.76-.88h-2.76v7.35Z"/>
    <path class="cls-1" d="M247.55,98.51h6.06v7.35c-1.59.65-3.35,1-5.35,1-2.59,0-4.59-.71-5.94-2.18s-2.06-3.47-2.06-6.12c0-1.65.35-3.12,1-4.35.71-1.29,1.65-2.24,2.94-2.94,1.29-.71,2.76-1.06,4.41-1.06,1.76,0,3.41.35,4.82,1l-.47,1c-1.41-.65-2.88-1-4.41-1-2.18,0-3.88.65-5.12,2-1.24,1.35-1.88,3.12-1.88,5.29,0,2.41.59,4.23,1.82,5.47,1.18,1.24,2.94,1.82,5.29,1.82,1.53,0,2.76-.24,3.82-.65v-5.71h-4.88v-.94h-.06Z"/>
    <path class="cls-1" d="M261.55,99.45l4.88-9h1.24l-5.53,10.06v6.35h-1.18v-6.23l-5.59-10.18h1.35l4.82,9Z"/>
  </g>
  <g>
    <path class="cls-4" d="M95.6,129.14v.49c0,4.23-1.71,8.37-7.22,8.37-5.91,0-7.75-3.81-7.75-12.18s1.84-12.18,7.78-12.18c6.66,0,7.06,4.92,7.06,7.35v.43h-3.74v-.39c0-2.17-.66-4.66-3.35-4.56-2.76,0-4.01,1.71-4.01,9.26s1.25,9.45,4.01,9.45c3.12,0,3.48-3.48,3.48-5.65v-.39h3.74Z"/>
    <path class="cls-4" d="M97.89,114.1h6.66c7.35,0,8.27,4.79,8.27,11.72s-.92,11.72-8.27,11.72h-6.66v-23.44ZM101.63,134.72h3.09c3.09,0,4.37-2.04,4.37-8.9s-1.12-8.9-4.37-8.9h-3.09v17.79Z"/>
    <path class="cls-4" d="M118.51,130.29v.59c0,2.86,1.25,4.3,3.84,4.3,2.36,0,3.55-1.67,3.55-3.41,0-2.46-1.25-3.55-3.35-4.17l-2.56-.89c-3.41-1.31-4.89-3.09-4.89-6.43,0-4.27,2.89-6.63,7.29-6.63,6.01,0,6.63,3.74,6.63,6.17v.53h-3.74v-.49c0-2.13-.95-3.38-3.28-3.38-1.61,0-3.15.89-3.15,3.38,0,2,1.02,3.02,3.51,3.97l2.53.92c3.32,1.18,4.76,2.99,4.76,6.2,0,4.99-3.02,7.06-7.75,7.06-5.81,0-7.12-3.87-7.12-7.16v-.56h3.74Z"/>
    <path class="cls-4" d="M154.95,129.14v.49c0,4.23-1.71,8.37-7.22,8.37-5.91,0-7.75-3.81-7.75-12.18s1.84-12.18,7.78-12.18c6.66,0,7.06,4.92,7.06,7.35v.43h-3.74v-.39c0-2.17-.66-4.66-3.35-4.56-2.76,0-4.01,1.71-4.01,9.26s1.25,9.45,4.01,9.45c3.12,0,3.48-3.48,3.48-5.65v-.39h3.74Z"/>
    <path class="cls-4" d="M165.91,135.47h-.1c-.89,1.58-2.56,2.53-4.53,2.53-2.63,0-4.4-1.21-4.4-5.78v-12.34h3.55v12.67c0,1.97.89,2.63,2.4,2.63s2.89-.98,2.89-2.95v-12.34h3.55v17.66h-3.35v-2.07Z"/>
    <path class="cls-4" d="M179.71,125.03v-.46c0-1.41-.49-2.73-2.33-2.73-1.41,0-2.53.66-2.53,2.3,0,1.38.62,1.94,2.49,2.59l2.27.79c2.63.89,3.84,2.3,3.84,5.09,0,3.78-2.76,5.38-6.34,5.38-4.46,0-5.81-2.07-5.81-5.48v-.66h3.15v.56c0,2.04.72,3.15,2.76,3.15s2.89-.99,2.89-2.59c0-1.31-.69-2.17-1.94-2.59l-2.89-1.02c-2.66-.92-3.78-2.27-3.78-5.09,0-3.32,2.4-4.86,6.04-4.86,4.5,0,5.52,2.63,5.52,4.83v.79h-3.35Z"/>
    <path class="cls-4" d="M184.21,119.88h2.43v-5.02h3.55v5.02h2.89v2.63h-2.89v10.54c0,1.38.39,1.87,1.61,1.87.52,0,.95-.03,1.28-.1v2.63c-.76.2-1.74.3-2.86.3-2.4,0-3.58-.66-3.58-4.27v-10.96h-2.43v-2.63Z"/>
    <path class="cls-4" d="M200.23,119.42c5.15,0,6.6,3.81,6.6,9.29s-1.67,9.29-6.6,9.29-6.57-3.81-6.57-9.29,1.44-9.29,6.57-9.29ZM200.23,135.37c2.59,0,3.05-2.17,3.05-6.66,0-3.91-.46-6.66-3.05-6.66s-3.02,2.76-3.02,6.66c0,4.5.46,6.66,3.02,6.66Z"/>
    <path class="cls-4" d="M209,119.88h3.35v2.07h.1c.89-1.58,2.56-2.53,4.23-2.53,2.53,0,3.58,1.21,4.1,2.69,1.02-1.71,2.33-2.69,4.46-2.69,2.49,0,4.3,1.28,4.3,4.69v13.43h-3.55v-12.11c0-2.3-.69-3.18-2.13-3.18s-2.82,1.15-2.82,3.45v11.85h-3.55v-12.11c0-2.3-.69-3.18-2.17-3.18s-2.79,1.15-2.79,3.45v11.85h-3.55v-17.66Z"/>
    <path class="cls-4" d="M235.38,129.17v1.02c0,2.36.3,5.38,2.95,5.38s2.82-2.89,2.82-3.94h3.35c0,3.91-2.36,6.37-6.2,6.37-2.89,0-6.47-.85-6.47-9.03,0-4.63.99-9.55,6.53-9.55,4.92,0,6.24,2.95,6.24,7.88v1.87h-9.22ZM241.05,126.74v-.95c0-2.23-.72-3.94-2.72-3.94-2.27,0-2.95,2.23-2.95,4.53v.36h5.68Z"/>
    <path class="cls-4" d="M246.83,119.88h3.55v2.76h.07c.79-1.97,2.1-3.22,4.1-3.22.39,0,.62.07.85.13v3.61c-.26-.07-.89-.2-1.48-.2-1.61,0-3.55.72-3.55,4v10.57h-3.55v-17.66Z"/>
    <path class="cls-4" d="M265.28,114.1h6.66c7.35,0,8.27,4.79,8.27,11.72s-.92,11.72-8.27,11.72h-6.66v-23.44ZM269.03,134.72h3.09c3.09,0,4.37-2.04,4.37-8.9s-1.12-8.9-4.37-8.9h-3.09v17.79Z"/>
    <path class="cls-4" d="M294.23,133.86c0,.66.39,1.25.92,1.25.23,0,.46-.03.59-.1v2.3c-.43.2-1.05.43-1.74.43-1.58,0-2.89-.62-2.99-2.33h-.07c-.95,1.74-2.33,2.59-4.4,2.59-2.82,0-4.6-1.58-4.6-4.96,0-3.94,1.71-4.76,4.1-5.55l2.76-.76c1.28-.36,2.07-.72,2.07-2.26s-.56-2.63-2.43-2.63c-2.36,0-2.69,1.67-2.69,3.38h-3.35c0-3.74,1.54-5.81,6.2-5.81,3.12,0,5.61,1.21,5.61,4.33v10.11ZM290.88,128.22c-.92.72-2.89,1.15-3.94,1.64-1.02.49-1.44,1.54-1.44,2.86,0,1.48.72,2.66,2.2,2.66,2.13,0,3.18-1.61,3.18-4.2v-2.95Z"/>
    <path class="cls-4" d="M295.68,119.88h2.43v-5.02h3.55v5.02h2.89v2.63h-2.89v10.54c0,1.38.39,1.87,1.61,1.87.52,0,.95-.03,1.28-.1v2.63c-.76.2-1.74.3-2.86.3-2.4,0-3.58-.66-3.58-4.27v-10.96h-2.43v-2.63Z"/>
    <path class="cls-4" d="M317.86,133.86c0,.66.39,1.25.92,1.25.23,0,.46-.03.59-.1v2.3c-.43.2-1.05.43-1.74.43-1.58,0-2.89-.62-2.99-2.33h-.07c-.95,1.74-2.33,2.59-4.4,2.59-2.82,0-4.6-1.58-4.6-4.96,0-3.94,1.71-4.76,4.1-5.55l2.76-.76c1.28-.36,2.07-.72,2.07-2.26s-.56-2.63-2.43-2.63c-2.36,0-2.69,1.67-2.69,3.38h-3.35c0-3.74,1.54-5.81,6.2-5.81,3.12,0,5.61,1.21,5.61,4.33v10.11ZM314.51,128.22c-.92.72-2.89,1.15-3.94,1.64-1.02.49-1.44,1.54-1.44,2.86,0,1.48.72,2.66,2.2,2.66,2.13,0,3.18-1.61,3.18-4.2v-2.95Z"/>
  </g>
</svg>