<?xml version="1.0" encoding="UTF-8"?>
<svg id="Layer_1" data-name="Layer 1" xmlns="http://www.w3.org/2000/svg" viewBox="0 0 400 170">
  <defs>
    <style>
      .cls-1 {
        fill: #fff;
      }
    </style>
  </defs>
  <g>
    <path class="cls-1" d="M203.8,45.1l-2,3.46,2,3.46,7.91,13.7,1.62,2.82,7.47,12.94.65,1.12.84,1.47.88,1.52c-1.2.05-2.22.74-2.74,1.74l-.91-1.56-.86-1.49-.55-.94-7.6-13.17-1.62-2.82-7.91-13.69-2-3.47h-43.02c.29-.47.44-1.03.44-1.62s-.16-1.16-.44-1.62h43.02l2-3.47,7.91-13.69,1.62-2.82,6.95-12.04,1.64-2.82.05-.1,1.56-2.7.12-.19s.04.05.07.08c.6.65,1.45,1.07,2.4,1.07.08,0,.16,0,.23-.01.14,0,.29-.03.42-.05l-.22.39-1.31,2.27-.31.53-1.31,2.27-7.47,12.94-1.62,2.82-7.91,13.7Z"/>
    <path class="cls-1" d="M223.31,92.07h1.74l.53-.92c-.58.57-1.39.92-2.27.92ZM220.06,6.99c0-.73.25-1.42.65-1.95h-45.9l-3.4,5.9-17.98,31.13-2.27,3.94c.55-.44,1.25-.7,2.01-.7.49,0,.96.12,1.38.31.35.17.68.39.95.66l1.05-1.82.6-1.04,17.48-30.28,2.43-4.21h43.66c-.27-.36-.48-.79-.57-1.27-.05-.22-.08-.44-.08-.68ZM149.96,48.09l-.27.47.27.47c-.03-.16-.04-.31-.04-.47s.01-.31.04-.47ZM220.4,90.27c-.22-.43-.34-.92-.34-1.44,0-.21.01-.4.05-.6.01-.03.01-.04.01-.05h-43.07l-3.05-5.29-16.82-29.12-.04-.08-1.57-2.71-.08-.14s-.05.04-.06.05c-.45.44-1.03.75-1.66.87-.19.04-.39.05-.6.05-.77,0-1.47-.26-2.01-.7l2.27,3.94,17.56,30.42,3.82,6.61h48.5c-1.27,0-2.38-.74-2.91-1.81ZM246.43,42.08l-17.98-31.13-1.95-3.38c-.1.64-.4,1.21-.83,1.65-.43.47-1,.79-1.62.94-.03.01-.05.01-.09.03-.13.03-.27.05-.42.05l.19.34.31.53,1.21,2.1.42.71,17.05,29.52,2.95,5.12-2.95,5.12-16.85,29.17-.21.36-1.44,2.49c.56.17,1.07.49,1.44.91.55.58.88,1.36.88,2.21,0,.29-.04.57-.1.83l2.42-4.2,17.56-30.42,3.74-6.48-3.74-6.48Z"/>
    <path class="cls-1" d="M246.69,42.07c-.09,0-.18,0-.26.01-1.4.05-2.68.55-3.7,1.36-.51.36-.95.83-1.31,1.35l-15.74-9.09-1.62-.94-1.62-.94-1.62-.94-7.47-4.31-2.81-1.62-6.96-4.01-1.62-.94-1.62-.94-1.68-.96-16.64-9.61c.31-.48.56-1,.74-1.56.19-.61.3-1.26.3-1.95s-.1-1.32-.29-1.95c-.83-2.64-3.3-4.55-6.21-4.55-3.58,0-6.49,2.91-6.49,6.49,0,1.49.51,2.86,1.35,3.95.81,1.04,1.92,1.82,3.22,2.21.42.14.86.23,1.3.27v68.97c-.68.06-1.32.23-1.92.49-1.25.52-2.3,1.43-3.01,2.57-.58.97-.94,2.13-.94,3.36,0,3.58,2.91,6.49,6.49,6.49,2.4,0,4.49-1.3,5.62-3.25.56-.95.87-2.07.87-3.25,0-.22-.01-.44-.04-.65-.06-.66-.22-1.29-.47-1.87l15.5-8.95,1.62-.94,1.62-.94,1.64-.94,7.61-4.39,2.81-1.62,7.47-4.31,1.62-.94,1.62-.94,1.62-.94,15.74-9.09c.36.52.81.99,1.31,1.35,1.03.82,2.3,1.31,3.7,1.36.08.01.17.01.26.01,3.58,0,6.49-2.91,6.49-6.49s-2.91-6.49-6.49-6.49ZM240.26,49.23l-14.59,8.42-1.62.94-1.62.95-1.62.94-9.09,5.25-2.81,1.62-9.25,5.33-1.64.95-1.61.94-1.61.94-14.27,8.24c-.42-.32-.86-.61-1.35-.82V12.92c.1-.04.18-.09.27-.14l15.96,9.21,1.66.96,1.62.94,1.62.95,8.59,4.95,2.81,1.62,9.09,5.25,1.62.95,1.62.94,1.62.94,14.59,8.42c-.03.22-.06.44-.06.68s.04.45.06.68Z"/>
    <circle class="cls-1" cx="199.93" cy="48.56" r="5.2"/>
    <path class="cls-1" d="M225.88,82.85c-.06-.03-.13-.05-.21-.08V13.05c1.12-.44,2.08-1.17,2.78-2.1.86-1.09,1.35-2.47,1.35-3.95,0-3.58-2.91-6.49-6.49-6.49-2.91,0-5.38,1.91-6.21,4.55-.18.62-.29,1.27-.29,1.95s.1,1.32.29,1.95c.04.13.09.27.14.4l-18.6,10.77-3.23,1.87-16.24,9.39-3.25,1.88-18.29,10.59c-.16-.14-.32-.29-.49-.42-1.03-.81-2.31-1.3-3.71-1.35-.09-.01-.17-.01-.26-.01-3.58,0-6.49,2.91-6.49,6.49s2.91,6.49,6.49,6.49c.09,0,.17,0,.26-.01,1.39-.05,2.66-.53,3.68-1.32l.08.05,18.74,10.82,3.25,1.87,15.63,9.03,3.23,1.87,18.38,10.61.36.21.08.04c-.03.19-.04.4-.04.61,0,1.18.31,2.3.87,3.25,1.13,1.95,3.22,3.25,5.62,3.25,3.58,0,6.49-2.91,6.49-6.49,0-1.23-.34-2.39-.94-3.36-.7-1.16-1.74-2.07-2.99-2.61ZM220.71,5.05c.6-.79,1.53-1.3,2.6-1.3,1.79,0,3.25,1.45,3.25,3.25,0,.19-.01.39-.05.57-.1.64-.4,1.21-.83,1.65-.43.47-1,.79-1.62.94-.03.01-.05.01-.09.03-.13.03-.27.05-.42.05-.08.01-.16.01-.23.01-.95,0-1.81-.42-2.4-1.07-.03-.03-.05-.05-.07-.08-.05-.05-.09-.1-.13-.16-.27-.36-.48-.79-.57-1.27-.05-.22-.08-.44-.08-.68,0-.73.25-1.42.65-1.95ZM153.17,51.81c-.77,0-1.47-.26-2.01-.7-.64-.51-1.08-1.23-1.19-2.08-.03-.16-.04-.31-.04-.47s.01-.31.04-.47c.12-.84.56-1.57,1.19-2.08.55-.44,1.25-.7,2.01-.7.49,0,.96.12,1.38.31.35.17.68.39.95.66.13.14.26.29.36.45.05.06.09.13.12.19.29.47.44,1.03.44,1.62s-.16,1.16-.44,1.62c-.13.25-.3.45-.48.65-.03.01-.05.04-.06.05-.45.44-1.03.75-1.66.87-.19.04-.39.05-.6.05ZM218.67,84.27c-.26.26-.49.55-.7.86l-16.69-9.64-3.26-1.87-18.85-10.88-3.25-1.87-16.81-9.7c.14-.31.25-.64.34-.97.05-.21.1-.43.13-.65.05-.31.08-.64.08-.97,0-.09,0-.17-.01-.26-.01-.47-.08-.92-.19-1.36-.03-.12-.07-.22-.1-.34l16.57-9.57,3.25-1.87,19.52-11.27,3.25-1.87,17.17-9.91.1-.06c.48.4,1.01.71,1.58.96.42.17.86.3,1.31.38.1.03.21.04.31.05v68.96c-.34.05-.66.12-.97.21-.22.08-.43.16-.65.23-.62.27-1.21.62-1.71,1.07-.14.12-.27.25-.42.38ZM226.45,89.66c-.16.57-.45,1.09-.87,1.49-.58.57-1.39.92-2.27.92-1.27,0-2.38-.74-2.91-1.81-.22-.43-.34-.92-.34-1.44,0-.21.01-.4.05-.6.01-.03.01-.04.01-.05.06-.31.17-.6.31-.86.52-1,1.55-1.69,2.74-1.74h.13c.26,0,.51.03.74.09.06.01.12.03.18.04.56.17,1.07.49,1.44.91.55.58.88,1.36.88,2.21,0,.29-.04.57-.1.83Z"/>
  </g>
  <g>
    <polygon class="cls-1" points="129.38 124.04 129.38 116.75 125.7 116.75 125.7 127.65 136.61 127.65 136.61 124.04 129.38 124.04"/>
    <polygon class="cls-1" points="143.9 109.46 125.7 109.46 125.7 114.88 129.32 114.88 129.32 113.07 140.28 113.07 140.28 124.04 138.48 124.04 138.48 127.65 143.9 127.65 143.9 109.46"/>
    <g>
      <path class="cls-1" d="M148.74,109.65h5.55v13.35h7.94v4.58h-13.48v-17.93h0Z"/>
      <path class="cls-1" d="M164.61,109.65h13.93v4.58h-8.39v2.26h7.16v4.26h-7.16v6.84h-5.55v-17.93Z"/>
    </g>
    <path class="cls-1" d="M192.8,127.72h-10.06v-18.13h10.06v1.16h-8.77v6.84h8.26v1.16h-8.26v7.74h8.77v1.23Z"/>
    <path class="cls-1" d="M210.35,127.72h-1.29l-10.9-16.06h-.13c.13,1.94.13,3.35.13,4.32v11.74h-1.16v-18.13h1.29l10.9,16.06h.06c-.06-1.48-.13-2.9-.13-4.26v-11.81h1.23v18.13h0Z"/>
    <path class="cls-1" d="M225.57,127.72h-10.06v-18.13h10.06v1.16h-8.77v6.84h8.26v1.16h-8.26v7.74h8.77v1.23Z"/>
    <path class="cls-1" d="M231.05,119.85v7.87h-1.29v-18.13h4.39c2.26,0,3.94.39,5.03,1.23,1.1.84,1.61,2.06,1.61,3.74,0,1.23-.32,2.26-.97,3.1s-1.61,1.42-2.97,1.81l4.97,8.26h-1.55l-4.71-7.87h-4.52ZM231.05,118.75h3.48c1.55,0,2.77-.32,3.61-1.03.84-.71,1.29-1.68,1.29-3.03s-.39-2.39-1.23-3.03-2.19-.97-4.13-.97h-3.03v8.06Z"/>
    <path class="cls-1" d="M252.09,118.43h6.64v8.06c-1.74.71-3.68,1.1-5.87,1.1-2.84,0-5.03-.77-6.52-2.39s-2.26-3.81-2.26-6.71c0-1.81.39-3.42,1.1-4.77.77-1.42,1.81-2.45,3.23-3.23s3.03-1.16,4.84-1.16c1.94,0,3.74.39,5.29,1.1l-.52,1.1c-1.55-.71-3.16-1.1-4.84-1.1-2.39,0-4.26.71-5.61,2.19s-2.06,3.42-2.06,5.81c0,2.65.65,4.64,2,6,1.29,1.35,3.23,2,5.81,2,1.68,0,3.03-.26,4.19-.71v-6.26h-5.35v-1.03h-.06Z"/>
    <path class="cls-1" d="M267.44,119.46l5.35-9.87h1.35l-6.06,11.03v6.97h-1.29v-6.84l-6.13-11.16h1.48l5.29,9.87Z"/>
  </g>
  <g>
    <path class="cls-1" d="M102.62,135.6h7.66c8.46,0,9.51,5.51,9.51,13.48s-1.06,13.48-9.51,13.48h-7.66v-26.96ZM106.92,159.31h3.55c3.55,0,5.02-2.34,5.02-10.23s-1.28-10.23-5.02-10.23h-3.55v20.46Z"/>
    <g>
      <path class="cls-1" d="M205.86,135.3h4.08v4.08h-4.08v-4.08ZM205.86,142.24h4.08v20.31h-4.08v-20.31Z"/>
      <path class="cls-1" d="M278.66,135.3h4.08v4.08h-4.08v-4.08ZM278.66,142.24h4.08v20.31h-4.08v-20.31Z"/>
      <g>
        <path class="cls-1" d="M151.9,135.6h9.51c3.78,0,6.83,1.89,6.83,6.95,0,3.47-1.55,6.15-4.49,6.61v.08c2.68.26,4.08,1.74,4.23,5.51.04,1.74.08,3.85.15,5.47.08,1.32.72,1.96,1.28,2.34h-4.87c-.42-.49-.6-1.32-.72-2.38-.15-1.62-.11-3.13-.19-5.1-.08-2.94-.98-4.23-3.93-4.23h-3.51v11.7h-4.3v-26.96ZM159.64,147.6c2.76,0,4.3-1.66,4.3-4.38,0-2.87-1.25-4.38-4.08-4.38h-3.66v8.76h3.44Z"/>
        <path class="cls-1" d="M239.65,142.24h4.08v3.17h.08c.91-2.27,2.42-3.7,4.72-3.7.45,0,.72.08.98.15v4.15c-.3-.08-1.02-.23-1.7-.23-1.85,0-4.08.83-4.08,4.61v12.16h-4.08v-20.31Z"/>
        <g>
          <path class="cls-1" d="M99.75,152.89v.57c0,4.87-1.96,9.63-8.31,9.63-6.8,0-8.91-4.38-8.91-14.01s2.11-14.01,8.95-14.01c7.66,0,8.12,5.66,8.12,8.46v.49h-4.3v-.45c0-2.49-.76-5.36-3.85-5.25-3.17,0-4.61,1.96-4.61,10.65s1.43,10.87,4.61,10.87c3.59,0,4-4,4-6.49v-.45h4.3Z"/>
          <path class="cls-1" d="M126.57,154.21v.68c0,3.28,1.43,4.95,4.42,4.95,2.72,0,4.08-1.93,4.08-3.93,0-2.83-1.43-4.08-3.85-4.79l-2.94-1.02c-3.93-1.51-5.63-3.55-5.63-7.4,0-4.91,3.32-7.63,8.38-7.63,6.91,0,7.63,4.3,7.63,7.1v.6h-4.3v-.57c0-2.45-1.09-3.89-3.78-3.89-1.85,0-3.62,1.02-3.62,3.89,0,2.3,1.17,3.47,4.04,4.57l2.91,1.06c3.81,1.36,5.47,3.44,5.47,7.13,0,5.74-3.47,8.12-8.91,8.12-6.68,0-8.19-4.45-8.19-8.23v-.64h4.3Z"/>
          <path class="cls-1" d="M174.77,152.93v1.17c0,2.72.34,6.19,3.4,6.19s3.25-3.32,3.25-4.53h3.85c0,4.49-2.72,7.32-7.14,7.32-3.32,0-7.44-.98-7.44-10.38,0-5.32,1.13-10.99,7.51-10.99,5.66,0,7.17,3.4,7.17,9.06v2.15h-10.61ZM181.3,150.13v-1.09c0-2.57-.83-4.53-3.13-4.53-2.6,0-3.4,2.57-3.4,5.21v.42h6.53Z"/>
          <path class="cls-1" d="M192.12,164.29c0,1.25,1.13,2.42,2.94,2.42,2.11,0,3.44-1.47,3.44-3.81v-3.28h-.08c-.76,1.77-2.64,2.79-4.61,2.79-4.76,0-6.08-4.68-6.08-10.23,0-4.45.68-10.46,6.46-10.46,2.38,0,4.08,1.55,4.45,3.02h.08v-2.49h3.85v19.33c0,4.95-2.11,7.93-7.59,7.93-6.04,0-6.72-3.55-6.72-5.21h3.85ZM194.99,159.16c3.17,0,3.51-4,3.51-7.21s-.42-6.98-3.25-6.98-3.44,3.02-3.44,6.8c0,3.47.15,7.4,3.17,7.4Z"/>
          <path class="cls-1" d="M222.27,148.17v-.53c0-1.62-.57-3.13-2.68-3.13-1.62,0-2.91.75-2.91,2.64,0,1.59.72,2.23,2.87,2.98l2.6.91c3.02,1.02,4.42,2.64,4.42,5.85,0,4.34-3.17,6.19-7.29,6.19-5.13,0-6.68-2.38-6.68-6.3v-.75h3.62v.64c0,2.34.83,3.62,3.17,3.62s3.32-1.13,3.32-2.98c0-1.51-.79-2.49-2.23-2.98l-3.32-1.17c-3.06-1.06-4.34-2.61-4.34-5.85,0-3.81,2.76-5.59,6.95-5.59,5.17,0,6.34,3.02,6.34,5.55v.91h-3.85Z"/>
          <path class="cls-1" d="M227.65,142.24h2.79v-5.78h4.08v5.78h3.32v3.02h-3.32v12.12c0,1.59.45,2.15,1.85,2.15.6,0,1.09-.04,1.47-.11v3.02c-.87.23-2,.34-3.28.34-2.76,0-4.11-.75-4.11-4.91v-12.61h-2.79v-3.02Z"/>
          <path class="cls-1" d="M264.68,158.32c0,.75.45,1.43,1.06,1.43.26,0,.53-.04.68-.11v2.64c-.49.23-1.21.49-2,.49-1.81,0-3.32-.72-3.44-2.68h-.08c-1.09,2-2.68,2.98-5.06,2.98-3.25,0-5.29-1.81-5.29-5.7,0-4.53,1.96-5.47,4.72-6.38l3.17-.87c1.47-.42,2.38-.83,2.38-2.61s-.64-3.02-2.79-3.02c-2.72,0-3.1,1.93-3.1,3.89h-3.85c0-4.3,1.77-6.68,7.13-6.68,3.59,0,6.46,1.4,6.46,4.98v11.63ZM260.83,151.83c-1.06.83-3.32,1.32-4.53,1.89-1.17.57-1.66,1.77-1.66,3.28,0,1.7.83,3.06,2.53,3.06,2.45,0,3.66-1.85,3.66-4.83v-3.4Z"/>
          <path class="cls-1" d="M266.58,142.24h2.79v-5.78h4.08v5.78h3.32v3.02h-3.32v12.12c0,1.59.45,2.15,1.85,2.15.6,0,1.09-.04,1.47-.11v3.02c-.87.23-2,.34-3.28.34-2.76,0-4.11-.75-4.11-4.91v-12.61h-2.79v-3.02Z"/>
          <path class="cls-1" d="M293.01,141.71c5.93,0,7.59,4.38,7.59,10.68s-1.93,10.68-7.59,10.68-7.55-4.38-7.55-10.68,1.66-10.68,7.55-10.68ZM293.01,160.06c2.98,0,3.51-2.49,3.51-7.66,0-4.49-.53-7.66-3.51-7.66s-3.47,3.17-3.47,7.66c0,5.17.53,7.66,3.47,7.66Z"/>
        </g>
        <path class="cls-1" d="M303.23,142.24h3.85v2.38h.11c1.02-1.81,2.94-2.91,5.21-2.91,3.1,0,5.06,1.4,5.06,5.51v15.33h-4.08v-13.93c0-2.64-.79-3.66-2.83-3.66-1.66,0-3.25,1.32-3.25,3.96v13.63h-4.08v-20.31Z"/>
      </g>
    </g>
  </g>
</svg>