<?xml version="1.0" encoding="UTF-8"?>
<svg id="Layer_1" data-name="Layer 1" xmlns="http://www.w3.org/2000/svg" viewBox="0 0 120.71 115">
  <path d="M64.74,54.32l-2.27,3.92,2.27,3.92,8.96,15.53,1.84,3.19,8.46,14.66.74,1.27.96,1.66,1,1.72c-1.35.06-2.52.84-3.11,1.97l-1.03-1.77-.97-1.69-.62-1.06-8.61-14.93-1.84-3.19-8.96-15.52-2.27-3.93H10.54c.32-.53.5-1.16.5-1.84s-.18-1.31-.5-1.84h48.75l2.27-3.93,8.96-15.52,1.84-3.19,7.88-13.65,1.85-3.19.06-.12,1.77-3.06.13-.22s.04.06.07.09c.68.74,1.65,1.21,2.72,1.21.09,0,.18,0,.26-.01.16,0,.32-.03.47-.06l-.25.44-1.49,2.58-.35.6-1.49,2.58-8.46,14.66-1.84,3.19-8.96,15.53Z"/>
  <path d="M86.85,107.55h1.97l.6-1.05c-.66.65-1.58,1.05-2.58,1.05ZM83.17,11.13c0-.82.28-1.6.74-2.21H31.88l-3.86,6.68L7.65,50.89l-2.58,4.46c.62-.5,1.41-.79,2.28-.79.56,0,1.09.13,1.56.35.4.19.77.44,1.07.75l1.19-2.06.68-1.18L31.68,18.11l2.75-4.77h49.47c-.31-.41-.54-.9-.65-1.44-.06-.25-.09-.5-.09-.77ZM3.72,57.71l-.31.53.31.53c-.03-.18-.04-.35-.04-.53s.01-.35.04-.53ZM83.55,105.5c-.25-.49-.38-1.05-.38-1.63,0-.24.01-.46.06-.68.01-.03.01-.04.01-.06h-48.81l-3.46-5.99-19.06-33-.04-.09-1.78-3.08-.09-.16s-.06.04-.07.06c-.52.5-1.16.85-1.88.99-.22.04-.44.06-.68.06-.87,0-1.66-.29-2.28-.79l2.58,4.46,19.9,34.47,4.33,7.49h54.97c-1.44,0-2.69-.84-3.3-2.05ZM113.05,50.89l-20.37-35.28-2.21-3.83c-.12.72-.46,1.37-.94,1.87-.49.53-1.13.9-1.84,1.06-.03.01-.06.01-.1.03-.15.03-.31.06-.47.06l.22.38.35.6,1.37,2.38.47.81,19.33,33.46,3.34,5.8-3.34,5.8-19.09,33.06-.24.41-1.63,2.83c.63.19,1.21.56,1.63,1.03.62.66,1,1.55,1,2.5,0,.32-.04.65-.12.94l2.74-4.75,19.9-34.47,4.24-7.35-4.24-7.35Z"/>
  <path d="M113.35,50.88c-.1,0-.21,0-.29.01-1.59.06-3.03.62-4.2,1.55-.57.41-1.07.94-1.49,1.53l-17.84-10.3-1.84-1.06-1.84-1.06-1.84-1.06-8.46-4.89-3.18-1.84-7.89-4.55-1.84-1.06-1.84-1.06-1.9-1.09-18.86-10.89c.35-.54.63-1.13.84-1.77.22-.69.34-1.43.34-2.21s-.12-1.5-.32-2.21c-.94-2.99-3.74-5.15-7.04-5.15-4.06,0-7.36,3.3-7.36,7.36,0,1.69.57,3.24,1.53,4.47.91,1.18,2.18,2.06,3.65,2.5.47.16.97.26,1.47.31v78.16c-.77.07-1.5.26-2.18.56-1.41.59-2.61,1.62-3.42,2.91-.66,1.1-1.06,2.41-1.06,3.81,0,4.06,3.3,7.36,7.36,7.36,2.72,0,5.09-1.47,6.37-3.68.63-1.07.99-2.34.99-3.68,0-.25-.01-.5-.04-.74-.07-.75-.25-1.46-.53-2.12l17.56-10.14,1.84-1.06,1.84-1.06,1.85-1.06,8.63-4.98,3.18-1.84,8.46-4.89,1.84-1.06,1.84-1.06,1.84-1.06,17.84-10.3c.41.59.91,1.12,1.49,1.53,1.16.93,2.61,1.49,4.2,1.55.09.01.19.01.29.01,4.06,0,7.36-3.3,7.36-7.36s-3.3-7.36-7.36-7.36ZM106.06,59l-16.53,9.54-1.84,1.06-1.84,1.07-1.84,1.06-10.3,5.95-3.18,1.84-10.48,6.04-1.85,1.07-1.83,1.06-1.83,1.06-16.18,9.33c-.47-.37-.97-.69-1.53-.93V17.84c.12-.04.21-.1.31-.16l18.09,10.44,1.88,1.09,1.84,1.06,1.84,1.07,9.73,5.61,3.18,1.84,10.3,5.95,1.84,1.07,1.84,1.06,1.84,1.06,16.53,9.54c-.03.25-.07.5-.07.77s.04.52.07.77Z"/>
  <circle cx="60.35" cy="58.24" r="5.89"/>
  <path d="M89.76,97.1c-.07-.03-.15-.06-.24-.09V17.99c1.27-.5,2.36-1.32,3.15-2.38.97-1.24,1.53-2.8,1.53-4.47,0-4.06-3.3-7.36-7.36-7.36-3.3,0-6.09,2.16-7.04,5.15-.21.71-.32,1.44-.32,2.21s.12,1.5.32,2.21c.04.15.1.31.16.46l-21.08,12.2-3.67,2.12-18.4,10.64-3.68,2.13-20.73,12c-.18-.16-.37-.32-.56-.47-1.16-.91-2.62-1.47-4.21-1.53-.1-.01-.19-.01-.29-.01-4.06,0-7.36,3.3-7.36,7.36s3.3,7.36,7.36,7.36c.1,0,.19,0,.29-.01,1.58-.06,3.02-.6,4.17-1.5l.09.06,21.24,12.26,3.68,2.12,17.71,10.23,3.67,2.12,20.83,12.03.41.24.09.04c-.03.22-.04.46-.04.69,0,1.34.35,2.61.99,3.68,1.28,2.21,3.65,3.68,6.37,3.68,4.06,0,7.36-3.3,7.36-7.36,0-1.4-.38-2.71-1.06-3.81-.79-1.31-1.97-2.34-3.39-2.96ZM83.91,8.92c.68-.9,1.74-1.47,2.94-1.47,2.03,0,3.68,1.65,3.68,3.68,0,.22-.01.44-.06.65-.12.72-.46,1.37-.94,1.87-.49.53-1.13.9-1.84,1.06-.03.01-.06.01-.1.03-.15.03-.31.06-.47.06-.09.01-.18.01-.26.01-1.07,0-2.05-.47-2.72-1.21-.03-.03-.06-.06-.07-.09-.06-.06-.1-.12-.15-.18-.31-.41-.54-.9-.65-1.44-.06-.25-.09-.5-.09-.77,0-.82.28-1.6.74-2.21ZM7.36,61.92c-.87,0-1.66-.29-2.28-.79-.72-.57-1.22-1.4-1.35-2.36-.03-.18-.04-.35-.04-.53s.01-.35.04-.53c.13-.96.63-1.78,1.35-2.36.62-.5,1.41-.79,2.28-.79.56,0,1.09.13,1.56.35.4.19.77.44,1.07.75.15.16.29.32.41.52.06.07.1.15.13.22.32.53.5,1.16.5,1.84s-.18,1.31-.5,1.84c-.15.28-.34.52-.54.74-.03.01-.06.04-.07.06-.52.5-1.16.85-1.88.99-.22.04-.44.06-.68.06ZM81.59,98.7c-.29.29-.56.62-.79.97l-18.92-10.92-3.69-2.12-21.36-12.34-3.68-2.12-19.05-11c.16-.35.28-.72.38-1.1.06-.24.12-.49.15-.74.06-.35.09-.72.09-1.1,0-.1,0-.19-.01-.29-.01-.53-.09-1.05-.22-1.55-.03-.13-.07-.25-.12-.38l18.78-10.85,3.68-2.12,22.12-12.78,3.68-2.12,19.46-11.23.12-.07c.54.46,1.15.81,1.8,1.09.47.19.97.34,1.49.43.12.03.24.04.35.06v78.15c-.38.06-.75.13-1.1.24-.25.09-.49.18-.74.26-.71.31-1.37.71-1.94,1.21-.16.13-.31.28-.47.43ZM90.41,104.81c-.18.65-.52,1.24-.99,1.69-.66.65-1.58,1.05-2.58,1.05-1.44,0-2.69-.84-3.3-2.05-.25-.49-.38-1.05-.38-1.63,0-.24.01-.46.06-.68.01-.03.01-.04.01-.06.07-.35.19-.68.35-.97.59-1.13,1.75-1.91,3.11-1.97h.15c.29,0,.57.03.84.1.07.01.13.03.21.04.63.19,1.21.56,1.63,1.03.62.66,1,1.55,1,2.5,0,.32-.04.65-.12.94Z"/>
</svg>