<?xml version="1.0" encoding="UTF-8"?>
<svg id="Layer_1" data-name="Layer 1" xmlns="http://www.w3.org/2000/svg" xmlns:xlink="http://www.w3.org/1999/xlink" viewBox="0 0 400 169">
  <defs>
    <style>
      .cls-1 {
        fill: #009ceb;
      }

      .cls-2 {
        fill: #00386e;
      }

      .cls-3 {
        fill: url(#New_Gradient_Swatch_4);
      }

      .cls-4 {
        fill: #202546;
      }
    </style>
    <linearGradient id="New_Gradient_Swatch_4" data-name="New Gradient Swatch 4" x1="228.5" y1="45.23" x2="149.19" y2="45.23" gradientUnits="userSpaceOnUse">
      <stop offset="0" stop-color="#6e2995"/>
      <stop offset="1" stop-color="#ff8300"/>
    </linearGradient>
  </defs>
  <g>
    <path class="cls-4" d="M203.69,42.56l-1.91,3.3,1.91,3.3,7.55,13.07,1.55,2.69,7.13,12.34.62,1.07.81,1.4.84,1.45c-1.14.05-2.12.71-2.61,1.66l-.87-1.49-.82-1.43-.52-.89-7.25-12.57-1.55-2.69-7.55-13.06-1.91-3.31h-41.05c.27-.45.42-.98.42-1.55s-.15-1.1-.42-1.55h41.05l1.91-3.31,7.55-13.06,1.55-2.69,6.63-11.49,1.56-2.69.05-.1,1.49-2.58.11-.19s.04.05.06.07c.57.62,1.39,1.02,2.29,1.02.07,0,.15,0,.22-.01.14,0,.27-.02.4-.05l-.21.37-1.25,2.17-.3.51-1.25,2.17-7.13,12.34-1.55,2.69-7.55,13.07Z"/>
    <path class="cls-4" d="M222.31,87.37h1.66l.51-.88c-.56.55-1.33.88-2.17.88ZM219.21,6.2c0-.69.24-1.35.62-1.86h-43.8l-3.25,5.63-17.15,29.71-2.17,3.76c.52-.42,1.19-.67,1.92-.67.47,0,.92.11,1.31.3.33.16.64.37.9.63l1-1.74.57-.99,16.68-28.89,2.32-4.02h41.65c-.26-.35-.46-.76-.55-1.21-.05-.21-.07-.42-.07-.64ZM152.32,45.41l-.26.45.26.45c-.02-.15-.04-.3-.04-.45s.01-.3.04-.45ZM219.53,85.65c-.21-.41-.32-.88-.32-1.38,0-.2.01-.38.05-.57.01-.02.01-.04.01-.05h-41.1l-2.91-5.04-16.05-27.79-.04-.07-1.5-2.59-.07-.14s-.05.04-.06.05c-.43.42-.98.72-1.59.83-.19.04-.37.05-.57.05-.73,0-1.4-.25-1.92-.67l2.17,3.76,16.76,29.02,3.64,6.31h46.28c-1.21,0-2.27-.71-2.78-1.72ZM244.37,39.67l-17.15-29.71-1.86-3.22c-.1.61-.38,1.15-.79,1.57-.41.45-.95.76-1.55.89-.02.01-.05.01-.09.02-.12.02-.26.05-.4.05l.19.32.3.51,1.15,2.01.4.68,16.27,28.17,2.81,4.88-2.81,4.88-16.07,27.83-.2.35-1.38,2.38c.53.16,1.02.47,1.38.87.52.56.84,1.3.84,2.11,0,.27-.04.55-.1.79l2.31-4,16.76-29.02,3.57-6.18-3.57-6.18Z"/>
    <path class="cls-4" d="M244.61,39.66c-.09,0-.17,0-.25.01-1.34.05-2.55.52-3.53,1.3-.48.35-.9.79-1.25,1.29l-15.02-8.68-1.55-.89-1.55-.89-1.55-.89-7.13-4.11-2.68-1.55-6.64-3.83-1.55-.89-1.55-.89-1.6-.92-15.88-9.17c.3-.46.53-.95.71-1.49.19-.58.29-1.2.29-1.86s-.1-1.26-.27-1.86c-.79-2.52-3.15-4.34-5.92-4.34-3.42,0-6.2,2.78-6.2,6.2,0,1.43.48,2.73,1.29,3.77.77.99,1.83,1.74,3.07,2.11.4.14.82.22,1.24.26v65.81c-.64.06-1.26.22-1.83.47-1.19.5-2.19,1.36-2.88,2.45-.56.93-.89,2.03-.89,3.21,0,3.42,2.78,6.2,6.2,6.2,2.29,0,4.29-1.24,5.37-3.1.53-.9.83-1.97.83-3.1,0-.21-.01-.42-.04-.62-.06-.63-.21-1.23-.45-1.78l14.78-8.54,1.55-.89,1.55-.89,1.56-.89,7.26-4.19,2.68-1.55,7.13-4.11,1.55-.89,1.55-.89,1.55-.89,15.02-8.68c.35.5.77.94,1.25,1.29.98.78,2.19,1.25,3.53,1.3.07.01.16.01.25.01,3.42,0,6.2-2.78,6.2-6.2s-2.78-6.2-6.2-6.2ZM238.48,46.5l-13.92,8.03-1.55.89-1.55.9-1.55.89-8.68,5.01-2.68,1.55-8.82,5.08-1.56.9-1.54.89-1.54.89-13.62,7.86c-.4-.31-.82-.58-1.29-.78V11.85c.1-.04.17-.09.26-.14l15.23,8.79,1.59.92,1.55.89,1.55.9,8.19,4.72,2.68,1.55,8.68,5.01,1.55.9,1.55.89,1.55.89,13.92,8.03c-.02.21-.06.42-.06.64s.04.43.06.64Z"/>
    <circle class="cls-4" cx="200" cy="45.85" r="4.96"/>
    <path class="cls-3" d="M224.76,78.57c-.06-.02-.12-.05-.2-.07V11.97c1.07-.42,1.98-1.12,2.65-2.01.82-1.04,1.29-2.35,1.29-3.77,0-3.42-2.78-6.2-6.2-6.2-2.78,0-5.13,1.82-5.92,4.34-.17.59-.27,1.21-.27,1.86s.1,1.26.27,1.86c.04.12.09.26.14.38l-17.75,10.27-3.09,1.78-15.49,8.96-3.1,1.8-17.45,10.1c-.15-.14-.31-.27-.47-.4-.98-.77-2.21-1.24-3.54-1.29-.09-.01-.16-.01-.25-.01-3.42,0-6.2,2.78-6.2,6.2s2.78,6.2,6.2,6.2c.09,0,.16,0,.25-.01,1.33-.05,2.54-.51,3.51-1.26l.07.05,17.88,10.32,3.1,1.78,14.91,8.61,3.09,1.78,17.54,10.13.35.2.07.04c-.02.19-.04.38-.04.58,0,1.13.3,2.19.83,3.1,1.08,1.86,3.07,3.1,5.37,3.1,3.42,0,6.2-2.78,6.2-6.2,0-1.18-.32-2.28-.89-3.21-.67-1.1-1.66-1.97-2.85-2.49ZM219.83,4.34c.57-.76,1.46-1.24,2.48-1.24,1.71,0,3.1,1.39,3.1,3.1,0,.19-.01.37-.05.55-.1.61-.38,1.15-.79,1.57-.41.45-.95.76-1.55.89-.02.01-.05.01-.09.02-.12.02-.26.05-.4.05-.07.01-.15.01-.22.01-.9,0-1.72-.4-2.29-1.02-.02-.02-.05-.05-.06-.07-.05-.05-.09-.1-.12-.15-.26-.35-.46-.76-.55-1.21-.05-.21-.07-.42-.07-.64,0-.69.24-1.35.62-1.86ZM155.39,48.95c-.73,0-1.4-.25-1.92-.67-.61-.48-1.03-1.18-1.14-1.98-.02-.15-.04-.3-.04-.45s.01-.3.04-.45c.11-.81.53-1.5,1.14-1.98.52-.42,1.19-.67,1.92-.67.47,0,.92.11,1.31.3.33.16.64.37.9.63.12.14.25.27.35.43.05.06.09.12.11.19.27.45.42.98.42,1.55s-.15,1.1-.42,1.55c-.12.24-.29.43-.46.62-.02.01-.05.04-.06.05-.43.42-.98.72-1.59.83-.19.04-.37.05-.57.05ZM217.88,79.92c-.25.25-.47.52-.67.82l-15.93-9.2-3.11-1.78-17.98-10.39-3.1-1.78-16.04-9.26c.14-.3.24-.61.32-.93.05-.2.1-.41.12-.62.05-.3.07-.61.07-.93,0-.09,0-.16-.01-.25-.01-.45-.07-.88-.19-1.3-.02-.11-.06-.21-.1-.32l15.81-9.13,3.1-1.78,18.63-10.76,3.1-1.78,16.38-9.46.1-.06c.46.38.97.68,1.51.92.4.16.82.29,1.25.36.1.02.2.04.3.05v65.79c-.32.05-.63.11-.93.2-.21.07-.41.15-.62.22-.59.26-1.15.59-1.64,1.02-.14.11-.26.24-.4.36ZM225.31,85.07c-.15.55-.43,1.04-.83,1.43-.56.55-1.33.88-2.17.88-1.21,0-2.27-.71-2.78-1.72-.21-.41-.32-.88-.32-1.38,0-.2.01-.38.05-.57.01-.02.01-.04.01-.05.06-.3.16-.57.3-.82.5-.95,1.47-1.61,2.61-1.66h.12c.25,0,.48.02.71.09.06.01.11.02.17.04.53.16,1.02.47,1.38.87.52.56.84,1.3.84,2.11,0,.27-.04.55-.1.79Z"/>
  </g>
  <g>
    <polygon class="cls-1" points="108.13 121.53 108.13 112.03 103.34 112.03 103.34 126.23 117.54 126.23 117.54 121.53 108.13 121.53"/>
    <polygon class="cls-2" points="127.04 102.54 103.34 102.54 103.34 109.6 108.05 109.6 108.05 107.25 122.33 107.25 122.33 121.53 119.98 121.53 119.98 126.23 127.04 126.23 127.04 102.54"/>
    <g>
      <path class="cls-2" d="M133.34,102.79h7.23v17.39h10.33v5.96h-17.56v-23.36h0Z"/>
      <path class="cls-2" d="M154,102.79h18.15v5.96h-10.92v2.94h9.33v5.54h-9.33v8.91h-7.23v-23.36Z"/>
    </g>
    <path class="cls-1" d="M190.72,126.32h-13.11v-23.61h13.11v1.51h-11.43v8.91h10.75v1.51h-10.75v10.08h11.43v1.6Z"/>
    <path class="cls-1" d="M213.57,126.32h-1.68l-14.2-20.92h-.17c.17,2.52.17,4.37.17,5.63v15.29h-1.51v-23.61h1.68l14.2,20.92h.08c-.08-1.93-.17-3.78-.17-5.54v-15.37h1.6v23.61h0Z"/>
    <path class="cls-1" d="M233.39,126.32h-13.11v-23.61h13.11v1.51h-11.43v8.91h10.75v1.51h-10.75v10.08h11.43v1.6Z"/>
    <path class="cls-1" d="M240.54,116.07v10.25h-1.68v-23.61h5.71c2.94,0,5.12.5,6.55,1.6,1.43,1.09,2.1,2.69,2.1,4.87,0,1.6-.42,2.94-1.26,4.03s-2.1,1.85-3.86,2.35l6.47,10.75h-2.02l-6.13-10.25h-5.88ZM240.54,114.64h4.54c2.02,0,3.61-.42,4.7-1.34,1.09-.92,1.68-2.18,1.68-3.95s-.5-3.11-1.6-3.95-2.86-1.26-5.38-1.26h-3.95v10.5Z"/>
    <path class="cls-1" d="M267.92,114.22h8.65v10.5c-2.27.92-4.79,1.43-7.65,1.43-3.7,0-6.55-1.01-8.49-3.11-1.93-2.1-2.94-4.96-2.94-8.74,0-2.35.5-4.45,1.43-6.22,1.01-1.85,2.35-3.19,4.2-4.2,1.85-1.01,3.95-1.51,6.3-1.51,2.52,0,4.87.5,6.89,1.43l-.67,1.43c-2.02-.92-4.12-1.43-6.3-1.43-3.11,0-5.54.92-7.31,2.86-1.76,1.93-2.69,4.45-2.69,7.56,0,3.44.84,6.05,2.6,7.81,1.68,1.76,4.2,2.6,7.56,2.6,2.18,0,3.95-.34,5.46-.92v-8.15h-6.97v-1.34h-.08Z"/>
    <path class="cls-1" d="M287.92,115.56l6.97-12.85h1.76l-7.9,14.37v9.07h-1.68v-8.91l-7.98-14.53h1.93l6.89,12.85Z"/>
  </g>
  <g>
    <path class="cls-4" d="M44.69,153v.55c0,4.69-1.89,9.27-8,9.27-6.54,0-8.58-4.22-8.58-13.49s2.04-13.49,8.62-13.49c7.38,0,7.82,5.45,7.82,8.14v.47h-4.14v-.44c0-2.4-.73-5.16-3.71-5.05-3.05,0-4.44,1.89-4.44,10.25s1.38,10.47,4.44,10.47c3.45,0,3.85-3.85,3.85-6.25v-.44h4.14Z"/>
    <path class="cls-4" d="M47.23,136.35h7.38c8.14,0,9.16,5.31,9.16,12.98s-1.02,12.98-9.16,12.98h-7.38v-25.96ZM51.37,159.18h3.42c3.42,0,4.84-2.25,4.84-9.85s-1.24-9.85-4.84-9.85h-3.42v19.71Z"/>
    <path class="cls-4" d="M70.07,154.27v.65c0,3.16,1.38,4.76,4.25,4.76,2.62,0,3.93-1.85,3.93-3.78,0-2.73-1.38-3.93-3.71-4.62l-2.84-.98c-3.78-1.45-5.42-3.42-5.42-7.13,0-4.73,3.2-7.34,8.07-7.34,6.65,0,7.34,4.14,7.34,6.84v.58h-4.14v-.55c0-2.36-1.05-3.74-3.64-3.74-1.78,0-3.49.98-3.49,3.74,0,2.22,1.13,3.35,3.89,4.4l2.8,1.02c3.67,1.31,5.27,3.31,5.27,6.87,0,5.53-3.34,7.82-8.58,7.82-6.44,0-7.89-4.29-7.89-7.93v-.62h4.14Z"/>
    <path class="cls-4" d="M94.46,136.35h8.22c4.98,0,7.16,3.13,7.16,7.56,0,4.65-2.73,7.67-7.6,7.67h-3.64v10.73h-4.14v-25.96ZM98.61,148.45h2.94c2.22,0,4.14-1.2,4.14-4.47,0-2.8-1.13-4.51-4.44-4.51h-2.65v8.98Z"/>
    <path class="cls-4" d="M118.25,142.24c5.71,0,7.31,4.22,7.31,10.29s-1.85,10.29-7.31,10.29-7.27-4.22-7.27-10.29,1.6-10.29,7.27-10.29ZM118.25,159.91c2.87,0,3.38-2.4,3.38-7.38,0-4.33-.51-7.38-3.38-7.38s-3.35,3.05-3.35,7.38c0,4.98.51,7.38,3.35,7.38Z"/>
    <path class="cls-4" d="M126.17,142.75h4.07l2.73,15.42h.07l2.91-15.42h4.44l2.91,15.42h.07l2.69-15.42h3.93l-4.47,19.56h-4.4l-3.05-15.2h-.07l-2.8,15.2h-4.58l-4.44-19.56Z"/>
    <path class="cls-4" d="M154.62,153.03v1.13c0,2.62.33,5.96,3.27,5.96s3.13-3.2,3.13-4.36h3.71c0,4.33-2.62,7.05-6.87,7.05-3.2,0-7.16-.94-7.16-10,0-5.13,1.09-10.58,7.24-10.58,5.45,0,6.91,3.27,6.91,8.73v2.07h-10.22ZM160.91,150.34v-1.05c0-2.47-.8-4.36-3.02-4.36-2.51,0-3.27,2.47-3.27,5.02v.4h6.29Z"/>
    <path class="cls-4" d="M167.31,142.75h3.93v3.05h.07c.87-2.18,2.33-3.56,4.54-3.56.44,0,.69.07.94.15v4c-.29-.07-.98-.22-1.64-.22-1.78,0-3.93.8-3.93,4.44v11.71h-3.93v-19.56Z"/>
    <path class="cls-4" d="M190.94,154.27v.65c0,3.16,1.38,4.76,4.25,4.76,2.62,0,3.93-1.85,3.93-3.78,0-2.73-1.38-3.93-3.71-4.62l-2.84-.98c-3.78-1.45-5.42-3.42-5.42-7.13,0-4.73,3.2-7.34,8.07-7.34,6.65,0,7.34,4.14,7.34,6.84v.58h-4.14v-.55c0-2.36-1.05-3.74-3.64-3.74-1.78,0-3.49.98-3.49,3.74,0,2.22,1.13,3.35,3.89,4.4l2.8,1.02c3.67,1.31,5.27,3.31,5.27,6.87,0,5.53-3.34,7.82-8.58,7.82-6.44,0-7.89-4.29-7.89-7.93v-.62h4.14Z"/>
    <path class="cls-4" d="M208.61,142.75l3.38,14.69h.07l3.13-14.69h4.11l-5.38,20.29c-1.53,5.34-2.8,6.04-6.84,5.96-.51,0-1.05-.07-1.56-.15v-3.13c.44.07.84.15,1.27.15,1.35,0,2.22-.29,2.65-1.53l.51-1.6-5.56-20h4.22Z"/>
    <path class="cls-4" d="M229.24,148.45v-.51c0-1.56-.55-3.02-2.58-3.02-1.56,0-2.8.73-2.8,2.55,0,1.53.69,2.14,2.76,2.87l2.51.87c2.91.98,4.25,2.55,4.25,5.64,0,4.18-3.05,5.96-7.02,5.96-4.94,0-6.44-2.29-6.44-6.07v-.73h3.49v.62c0,2.25.8,3.49,3.05,3.49s3.2-1.09,3.2-2.87c0-1.45-.76-2.4-2.14-2.87l-3.2-1.13c-2.94-1.02-4.18-2.51-4.18-5.64,0-3.67,2.65-5.38,6.69-5.38,4.98,0,6.11,2.91,6.11,5.34v.87h-3.71Z"/>
    <path class="cls-4" d="M234.22,142.75h2.69v-5.56h3.93v5.56h3.2v2.91h-3.2v11.67c0,1.53.44,2.07,1.78,2.07.58,0,1.05-.04,1.42-.11v2.91c-.84.22-1.93.33-3.16.33-2.65,0-3.96-.73-3.96-4.73v-12.14h-2.69v-2.91Z"/>
    <path class="cls-4" d="M248.79,153.03v1.13c0,2.62.33,5.96,3.27,5.96s3.13-3.2,3.13-4.36h3.71c0,4.33-2.62,7.05-6.87,7.05-3.2,0-7.16-.94-7.16-10,0-5.13,1.09-10.58,7.24-10.58,5.45,0,6.91,3.27,6.91,8.73v2.07h-10.22ZM255.08,150.34v-1.05c0-2.47-.8-4.36-3.02-4.36-2.51,0-3.27,2.47-3.27,5.02v.4h6.29Z"/>
    <path class="cls-4" d="M261.56,142.75h3.71v2.29h.11c.98-1.74,2.84-2.8,4.69-2.8,2.8,0,3.96,1.35,4.54,2.98,1.13-1.89,2.58-2.98,4.94-2.98,2.76,0,4.76,1.42,4.76,5.2v14.87h-3.93v-13.42c0-2.54-.76-3.53-2.36-3.53s-3.13,1.27-3.13,3.82v13.12h-3.93v-13.42c0-2.54-.76-3.53-2.4-3.53s-3.09,1.27-3.09,3.82v13.12h-3.93v-19.56Z"/>
    <path class="cls-4" d="M295.95,148.45v-.51c0-1.56-.55-3.02-2.58-3.02-1.56,0-2.8.73-2.8,2.55,0,1.53.69,2.14,2.76,2.87l2.51.87c2.91.98,4.25,2.55,4.25,5.64,0,4.18-3.05,5.96-7.02,5.96-4.94,0-6.44-2.29-6.44-6.07v-.73h3.49v.62c0,2.25.8,3.49,3.05,3.49s3.2-1.09,3.2-2.87c0-1.45-.76-2.4-2.15-2.87l-3.2-1.13c-2.94-1.02-4.18-2.51-4.18-5.64,0-3.67,2.65-5.38,6.69-5.38,4.98,0,6.11,2.91,6.11,5.34v.87h-3.71Z"/>
    <path class="cls-4" d="M311.98,136.35h7.38c8.14,0,9.16,5.31,9.16,12.98s-1.02,12.98-9.16,12.98h-7.38v-25.96ZM316.13,159.18h3.42c3.42,0,4.84-2.25,4.84-9.85s-1.24-9.85-4.84-9.85h-3.42v19.71Z"/>
    <path class="cls-4" d="M344.04,158.23c0,.73.44,1.38,1.02,1.38.25,0,.51-.04.65-.11v2.54c-.47.22-1.16.47-1.93.47-1.75,0-3.2-.69-3.31-2.58h-.07c-1.05,1.93-2.58,2.87-4.87,2.87-3.13,0-5.09-1.74-5.09-5.49,0-4.36,1.89-5.27,4.54-6.14l3.05-.84c1.42-.4,2.29-.8,2.29-2.51s-.62-2.91-2.69-2.91c-2.62,0-2.98,1.85-2.98,3.75h-3.71c0-4.14,1.71-6.44,6.87-6.44,3.45,0,6.22,1.35,6.22,4.8v11.2ZM340.33,151.98c-1.02.8-3.2,1.27-4.36,1.82-1.13.55-1.6,1.71-1.6,3.16,0,1.64.8,2.94,2.44,2.94,2.36,0,3.53-1.78,3.53-4.65v-3.27Z"/>
    <path class="cls-4" d="M345.65,142.75h2.69v-5.56h3.93v5.56h3.2v2.91h-3.2v11.67c0,1.53.44,2.07,1.78,2.07.58,0,1.05-.04,1.42-.11v2.91c-.84.22-1.93.33-3.16.33-2.65,0-3.96-.73-3.96-4.73v-12.14h-2.69v-2.91Z"/>
    <path class="cls-4" d="M370.22,158.23c0,.73.44,1.38,1.02,1.38.25,0,.51-.04.65-.11v2.54c-.47.22-1.16.47-1.93.47-1.75,0-3.2-.69-3.31-2.58h-.07c-1.05,1.93-2.58,2.87-4.87,2.87-3.13,0-5.09-1.74-5.09-5.49,0-4.36,1.89-5.27,4.54-6.14l3.05-.84c1.42-.4,2.29-.8,2.29-2.51s-.62-2.91-2.69-2.91c-2.62,0-2.98,1.85-2.98,3.75h-3.71c0-4.14,1.71-6.44,6.87-6.44,3.45,0,6.22,1.35,6.22,4.8v11.2ZM366.51,151.98c-1.02.8-3.2,1.27-4.36,1.82-1.13.55-1.6,1.71-1.6,3.16,0,1.64.8,2.94,2.44,2.94,2.36,0,3.53-1.78,3.53-4.65v-3.27Z"/>
  </g>
</svg>
