<?xml version="1.0" encoding="UTF-8"?>
<svg id="Layer_1" data-name="Layer 1" xmlns="http://www.w3.org/2000/svg" viewBox="0 0 400 150">
  <defs>
    <style>
      .cls-1 {
        fill: #fff;
      }
    </style>
  </defs>
  <g>
    <path class="cls-1" d="M64.45,71.83l-2.26,3.9,2.26,3.9,8.93,15.46,1.83,3.18,8.43,14.6.73,1.26.95,1.66,1,1.71c-1.35.06-2.51.84-3.09,1.96l-1.03-1.76-.97-1.69-.62-1.06-8.57-14.86-1.83-3.18-8.92-15.45-2.26-3.91H10.49c.32-.53.5-1.16.5-1.83s-.18-1.3-.5-1.83h48.54l2.26-3.91,8.92-15.45,1.83-3.18,7.84-13.59,1.85-3.18.06-.12,1.76-3.05.13-.22s.04.06.07.09c.67.73,1.64,1.2,2.71,1.2.09,0,.18,0,.26-.01.16,0,.32-.03.47-.06l-.25.44-1.48,2.56-.35.6-1.48,2.56-8.43,14.6-1.83,3.18-8.93,15.46Z"/>
    <path class="cls-1" d="M86.47,124.83h1.96l.6-1.04c-.66.64-1.57,1.04-2.56,1.04ZM82.8,28.84c0-.82.28-1.6.73-2.2H31.74l-3.84,6.65L7.62,68.42l-2.56,4.44c.62-.5,1.41-.79,2.27-.79.56,0,1.08.13,1.55.35.4.19.76.44,1.07.75l1.19-2.05.67-1.17,19.73-34.16,2.74-4.75h49.26c-.31-.41-.54-.89-.64-1.44-.06-.25-.09-.5-.09-.76ZM3.71,75.21l-.31.53.31.53c-.03-.18-.04-.35-.04-.53s.01-.35.04-.53ZM83.18,122.79c-.25-.48-.38-1.04-.38-1.63,0-.23.01-.45.06-.67.01-.03.01-.04.01-.06h-48.6l-3.44-5.96-18.98-32.86-.04-.09-1.77-3.06-.09-.16s-.06.04-.07.06c-.51.5-1.16.85-1.88.98-.22.04-.44.06-.67.06-.86,0-1.66-.29-2.27-.79l2.56,4.44,19.81,34.32,4.31,7.46h54.72c-1.44,0-2.68-.84-3.28-2.04ZM112.55,68.42l-20.28-35.13-2.2-3.81c-.12.72-.45,1.36-.94,1.86-.48.53-1.13.89-1.83,1.06-.03.01-.06.01-.1.03-.15.03-.31.06-.47.06l.22.38.35.6,1.36,2.37.47.81,19.24,33.31,3.33,5.77-3.33,5.77-19.01,32.92-.23.41-1.63,2.81c.63.19,1.2.56,1.63,1.03.62.66,1,1.54,1,2.49,0,.32-.04.64-.12.94l2.73-4.73,19.81-34.32,4.22-7.31-4.22-7.31Z"/>
    <path class="cls-1" d="M112.84,68.41c-.1,0-.21,0-.29.01-1.58.06-3.02.62-4.18,1.54-.57.41-1.07.94-1.48,1.52l-17.76-10.26-1.83-1.06-1.83-1.06-1.83-1.06-8.43-4.87-3.17-1.83-7.86-4.53-1.83-1.06-1.83-1.06-1.89-1.08-18.77-10.84c.35-.54.63-1.13.84-1.76.22-.69.34-1.42.34-2.2s-.12-1.49-.32-2.2c-.94-2.98-3.72-5.13-7.01-5.13-4.04,0-7.33,3.28-7.33,7.33,0,1.69.57,3.22,1.52,4.46.91,1.17,2.17,2.05,3.63,2.49.47.16.97.26,1.47.31v77.82c-.76.07-1.49.26-2.17.56-1.41.59-2.59,1.61-3.4,2.9-.66,1.1-1.06,2.4-1.06,3.8,0,4.04,3.28,7.33,7.33,7.33,2.71,0,5.07-1.47,6.35-3.66.63-1.07.98-2.33.98-3.66,0-.25-.01-.5-.04-.73-.07-.75-.25-1.45-.53-2.11l17.48-10.1,1.83-1.06,1.83-1.06,1.85-1.06,8.59-4.95,3.17-1.83,8.43-4.87,1.83-1.06,1.83-1.06,1.83-1.06,17.76-10.26c.41.59.91,1.11,1.48,1.52,1.16.92,2.59,1.48,4.18,1.54.09.01.19.01.29.01,4.04,0,7.33-3.28,7.33-7.33s-3.28-7.33-7.33-7.33ZM105.59,76.49l-16.46,9.5-1.83,1.06-1.83,1.07-1.83,1.06-10.26,5.92-3.17,1.83-10.43,6.01-1.85,1.07-1.82,1.06-1.82,1.06-16.11,9.29c-.47-.37-.97-.69-1.52-.92V35.52c.12-.04.21-.1.31-.16l18.01,10.39,1.88,1.08,1.83,1.06,1.83,1.07,9.69,5.58,3.17,1.83,10.26,5.92,1.83,1.07,1.83,1.06,1.83,1.06,16.46,9.5c-.03.25-.07.5-.07.76s.04.51.07.76Z"/>
    <circle class="cls-1" cx="60.09" cy="75.73" r="5.86"/>
    <path class="cls-1" d="M89.37,114.42c-.07-.03-.15-.06-.23-.09V35.67c1.26-.5,2.34-1.32,3.14-2.37.97-1.23,1.52-2.78,1.52-4.46,0-4.04-3.28-7.33-7.33-7.33-3.28,0-6.07,2.15-7.01,5.13-.21.7-.32,1.44-.32,2.2s.12,1.49.32,2.2c.04.15.1.31.16.45l-20.99,12.15-3.65,2.11-18.32,10.6-3.66,2.13-20.63,11.94c-.18-.16-.37-.32-.56-.47-1.16-.91-2.61-1.47-4.19-1.52-.1-.01-.19-.01-.29-.01-4.04,0-7.33,3.28-7.33,7.33s3.28,7.33,7.33,7.33c.1,0,.19,0,.29-.01,1.57-.06,3-.6,4.15-1.49l.09.06,21.15,12.21,3.66,2.11,17.63,10.19,3.65,2.11,20.74,11.97.41.23.09.04c-.03.22-.04.45-.04.69,0,1.33.35,2.59.98,3.66,1.27,2.2,3.63,3.66,6.35,3.66,4.04,0,7.33-3.28,7.33-7.33,0-1.39-.38-2.7-1.06-3.8-.79-1.3-1.96-2.33-3.37-2.95ZM83.53,26.64c.67-.89,1.73-1.47,2.93-1.47,2.02,0,3.66,1.64,3.66,3.66,0,.22-.01.44-.06.64-.12.72-.45,1.36-.94,1.86-.48.53-1.13.89-1.83,1.06-.03.01-.06.01-.1.03-.15.03-.31.06-.47.06-.09.01-.18.01-.26.01-1.07,0-2.04-.47-2.71-1.2-.03-.03-.06-.06-.07-.09-.06-.06-.1-.12-.15-.18-.31-.41-.54-.89-.64-1.44-.06-.25-.09-.5-.09-.76,0-.82.28-1.6.73-2.2ZM7.33,79.4c-.86,0-1.66-.29-2.27-.79-.72-.57-1.22-1.39-1.35-2.34-.03-.18-.04-.35-.04-.53s.01-.35.04-.53c.13-.95.63-1.77,1.35-2.34.62-.5,1.41-.79,2.27-.79.56,0,1.08.13,1.55.35.4.19.76.44,1.07.75.15.16.29.32.41.51.06.07.1.15.13.22.32.53.5,1.16.5,1.83s-.18,1.3-.5,1.83c-.15.28-.34.51-.54.73-.03.01-.06.04-.07.06-.51.5-1.16.85-1.88.98-.22.04-.44.06-.67.06ZM81.23,116.02c-.29.29-.56.62-.79.97l-18.83-10.87-3.68-2.11-21.26-12.28-3.66-2.11-18.96-10.95c.16-.35.28-.72.38-1.1.06-.23.12-.48.15-.73.06-.35.09-.72.09-1.1,0-.1,0-.19-.01-.29-.01-.53-.09-1.04-.22-1.54-.03-.13-.07-.25-.12-.38l18.7-10.8,3.66-2.11,22.03-12.72,3.66-2.11,19.37-11.18.12-.07c.54.45,1.14.81,1.79,1.08.47.19.97.34,1.48.42.12.03.23.04.35.06v77.8c-.38.06-.75.13-1.1.23-.25.09-.48.18-.73.26-.7.31-1.36.7-1.93,1.2-.16.13-.31.28-.47.42ZM90.01,122.1c-.18.64-.51,1.23-.98,1.69-.66.64-1.57,1.04-2.56,1.04-1.44,0-2.68-.84-3.28-2.04-.25-.48-.38-1.04-.38-1.63,0-.23.01-.45.06-.67.01-.03.01-.04.01-.06.07-.35.19-.67.35-.97.59-1.13,1.74-1.91,3.09-1.96h.15c.29,0,.57.03.84.1.07.01.13.03.21.04.63.19,1.2.56,1.63,1.03.62.66,1,1.54,1,2.49,0,.32-.04.64-.12.94Z"/>
  </g>
  <g>
    <polygon class="cls-1" points="135.01 48.59 135.01 35.24 128.28 35.24 128.28 55.2 148.23 55.2 148.23 48.59 135.01 48.59"/>
    <polygon class="cls-1" points="161.58 21.9 128.28 21.9 128.28 31.82 134.89 31.82 134.89 28.51 154.96 28.51 154.96 48.59 151.66 48.59 151.66 55.2 161.58 55.2 161.58 21.9"/>
    <g>
      <path class="cls-1" d="M170.43,22.25h10.16v24.44h14.53v8.38h-24.68V22.25h0Z"/>
      <path class="cls-1" d="M199.48,22.25h25.51v8.38h-15.35v4.13h13.11v7.79h-13.11v12.52h-10.16V22.25Z"/>
    </g>
    <path class="cls-1" d="M251.09,55.32h-18.42V22.13h18.42v2.13h-16.06v12.52h15.12v2.13h-15.12v14.17h16.06v2.24Z"/>
    <path class="cls-1" d="M283.21,55.32h-2.36l-19.96-29.4h-.24c.24,3.54.24,6.14.24,7.91v21.49h-2.13V22.13h2.36l19.96,29.4h.12c-.12-2.72-.24-5.31-.24-7.79v-21.61h2.24v33.18h0Z"/>
    <path class="cls-1" d="M311.08,55.32h-18.42V22.13h18.42v2.13h-16.06v12.52h15.12v2.13h-15.12v14.17h16.06v2.24Z"/>
    <path class="cls-1" d="M321.12,40.91v14.41h-2.36V22.13h8.03c4.13,0,7.2.71,9.21,2.24,2.01,1.54,2.95,3.78,2.95,6.85,0,2.24-.59,4.13-1.77,5.67-1.18,1.54-2.95,2.6-5.43,3.31l9.09,15.12h-2.83l-8.62-14.41h-8.27ZM321.12,38.9h6.38c2.83,0,5.08-.59,6.61-1.89,1.54-1.3,2.36-3.07,2.36-5.55s-.71-4.37-2.24-5.55-4.02-1.77-7.56-1.77h-5.55v14.76Z"/>
    <path class="cls-1" d="M359.61,38.31h12.16v14.76c-3.19,1.3-6.73,2.01-10.75,2.01-5.2,0-9.21-1.42-11.93-4.37-2.72-2.95-4.13-6.97-4.13-12.28,0-3.31.71-6.26,2.01-8.74,1.42-2.6,3.31-4.49,5.9-5.9,2.6-1.42,5.55-2.13,8.86-2.13,3.54,0,6.85.71,9.68,2.01l-.94,2.01c-2.83-1.3-5.79-2.01-8.86-2.01-4.37,0-7.79,1.3-10.27,4.02-2.48,2.72-3.78,6.26-3.78,10.63,0,4.84,1.18,8.5,3.66,10.98,2.36,2.48,5.9,3.66,10.63,3.66,3.07,0,5.55-.47,7.68-1.3v-11.45h-9.8v-1.89h-.12Z"/>
    <path class="cls-1" d="M387.72,40.2l9.8-18.07h2.48l-11.1,20.19v12.75h-2.36v-12.52l-11.22-20.43h2.72l9.68,18.07Z"/>
  </g>
  <g>
    <path class="cls-1" d="M165.28,106.36v1.23c0,10.58-4.26,20.91-18.04,20.91-14.76,0-19.35-9.51-19.35-30.42s4.59-30.42,19.43-30.42c16.64,0,17.63,12.3,17.63,18.37v1.07h-9.35v-.98c0-5.41-1.64-11.64-8.36-11.4-6.89,0-10,4.26-10,23.12s3.12,23.61,10,23.61c7.79,0,8.69-8.69,8.69-14.1v-.98h9.35Z"/>
    <path class="cls-1" d="M171,68.81h16.64c18.36,0,20.66,11.97,20.66,29.27s-2.3,29.27-20.66,29.27h-16.64v-58.54ZM180.35,120.29h7.71c7.71,0,10.9-5.08,10.9-22.22s-2.79-22.22-10.9-22.22h-7.71v44.44Z"/>
    <path class="cls-1" d="M222.5,109.22v1.48c0,7.13,3.12,10.74,9.59,10.74,5.9,0,8.85-4.18,8.85-8.53,0-6.15-3.12-8.85-8.36-10.41l-6.4-2.21c-8.53-3.28-12.22-7.71-12.22-16.07,0-10.66,7.21-16.56,18.2-16.56,15,0,16.56,9.35,16.56,15.41v1.31h-9.35v-1.23c0-5.33-2.38-8.44-8.2-8.44-4.02,0-7.87,2.21-7.87,8.44,0,5,2.54,7.54,8.77,9.92l6.31,2.29c8.28,2.95,11.89,7.46,11.89,15.5,0,12.46-7.54,17.63-19.35,17.63-14.51,0-17.79-9.67-17.79-17.87v-1.39h9.35Z"/>
  </g>
</svg>