<?xml version="1.0" encoding="UTF-8"?>
<svg id="Layer_1" data-name="Layer 1" xmlns="http://www.w3.org/2000/svg" version="1.1" viewBox="0 0 800 500">
  <defs>
    <style>
      .cls-1 {
        fill: #fff;
        stroke-width: 0px;
      }
    </style>
  </defs>
  <g>
    <polygon class="cls-1" points="19.6000004 255.6999969 19.6000004 216.5 0 216.5 0 275.2999878 58.7999992 275.2999878 58.7999992 255.6999969 19.6000004 255.6999969"/>
    <polygon class="cls-1" points="97.9000015 177.1999969 0 177.1999969 0 206.6000061 19.5 206.6000061 19.5 197 78.4000015 197 78.4000015 255.6999969 68.5 255.6999969 68.5 275.2999878 97.9000015 275.2999878 97.9000015 177.1999969"/>
    <polygon class="cls-1" points="123.9000015 178.3999939 153.8000031 178.3999939 153.8000031 250.5 196.6000061 250.5 196.6000061 275.2999878 123.9000015 275.2999878 123.9000015 178.3999939"/>
    <polygon class="cls-1" points="209.3999939 178.3999939 284.2999878 178.3999939 284.2999878 203.1999969 239.1999969 203.1999969 239.1999969 215.3000031 277.7999878 215.3000031 277.7999878 238.3999939 239.1999969 238.3999939 239.1999969 275.2999878 209.3000031 275.2999878 209.3000031 178.3999939 209.3999939 178.3999939"/>
    <polygon class="cls-1" points="361.3999939 275.7999878 307.2000122 275.7999878 307.2000122 178.1999969 361.3999939 178.1999969 361.3999939 184.5 314.2000122 184.5 314.2000122 221.3999939 358.7000122 221.3999939 358.7000122 227.6999969 314.2000122 227.6999969 314.2000122 269.6000061 361.3999939 269.6000061 361.3999939 275.7999878"/>
    <path class="cls-1" d="M455.7999878,275.7999878h-7l-58.7000122-86.6999969h-.5c.5,10.3000031.7999878,18.1000061.7999878,23.3999939v63.3000031h-6.6000061v-97.5h6.8999939l58.7000122,86.6000061h.3999939c-.3999939-8-.6000061-15.6999969-.6000061-22.8000031v-63.8000031h6.7000122v97.5h-.0999756Z"/>
    <polygon class="cls-1" points="538 275.7999878 483.7999878 275.7999878 483.7999878 178.1999969 538 178.1999969 538 184.5 490.8999939 184.5 490.8999939 221.3999939 535.4000244 221.3999939 535.4000244 227.6999969 490.8999939 227.6999969 490.8999939 269.6000061 538 269.6000061 538 275.7999878"/>
    <path class="cls-1" d="M567.2999878,233.3000031v42.5999908h-6.9000244v-97.6999969h23.5999756c12.2999878,0,21.2999878,2.3000031,27.2999878,6.6999969s8.7999878,11.1999969,8.7999878,20.1999969c0,6.6000061-1.7000122,12.1000061-5.2999878,16.6000061s-8.7999878,7.8000031-15.9000244,9.6000061l26.9000244,44.4000092h-8.4000244l-25.5999756-42.6000061-24.499939.1999969h0ZM567.2999878,227.5h18.7999878c8.2999878,0,14.9000244-1.8999939,19.4000244-5.5,4.5999756-3.6999969,6.9000244-9.1000061,6.9000244-16.1999969,0-7.3999939-2.2999878-12.8000031-6.7000122-16.1999969s-11.9000244-5.1999969-22.0999756-5.1999969h-16.2000122v43.0999908h-.1000366Z"/>
    <path class="cls-1" d="M680.7999878,225.3999939h35.7000122v43.5c-9.4000244,4-19.9000244,5.8999939-31.7000122,5.8999939-15.2999878,0-27-4.2000122-35.0999756-12.7999878-8-8.6000061-12.2999878-20.5-12.2999878-36.1000061,0-9.8000031,2-18.3000031,6.0999756-25.8999939,4-7.5,9.9000244-13.3000031,17.4000244-17.3999939,7.5-4.1000061,16.2000122-6.1999969,25.9000244-6.1999969,10.5,0,20,1.8999939,28.4000244,5.8000031l-2.7000122,6.1000061c-8.4000244-3.8000031-17.0999756-5.8000031-26.0999756-5.8000031-12.7999878,0-23,3.8000031-30.2999878,11.6000061s-11.2000122,18.1999969-11.2000122,31.3999939c0,14.3999939,3.5999756,25.1999969,10.7000122,32.4000092,7.0999756,7.2999878,17.5,10.7999878,31.4000244,10.7999878,9,0,16.5-1.2000122,22.5999756-3.7000122v-33.3999939h-28.9000244l.0999146-6.2000122c.2000122,0,0,0,0,0Z"/>
    <polygon class="cls-1" points="763.7000122 231.3000031 792.5999756 178.1999969 800 178.1999969 767.0999756 237.6999969 767.0999756 275.2999878 760 275.2999878 760 238.3000031 727.0999756 178.1999969 734.9000244 178.1999969 763.7000122 231.3000031"/>
  </g>
  <g>
    <path class="cls-1" d="M161.6611328,316.2783203c.328125.6328125.7641602,1.1445312,1.3085938,1.5361328.543457.3925781,1.1816406.6826172,1.9150391.8720703.7333984.1904297,1.4916992.2851562,2.2758789.2851562.53125,0,1.1000977-.0439453,1.7070312-.1328125s1.1757812-.2587891,1.706543-.5126953c.53125-.2519531.9731445-.5996094,1.3276367-1.0429688.3540039-.4414062.53125-1.0048828.53125-1.6875,0-.7333984-.234375-1.3271484-.7016602-1.7822266-.4682617-.4560547-1.0810547-.8349609-1.8398438-1.1386719-.7583008-.3027344-1.6186523-.5683594-2.5791016-.7958984-.9614258-.2275391-1.9345703-.4804688-2.9204102-.7587891-1.0117188-.2529297-1.9980469-.5625-2.9584961-.9296875-.9614258-.3662109-1.8208008-.8398438-2.5795898-1.421875-.7583008-.5820312-1.3720703-1.3085938-1.8393555-2.1816406-.4682617-.8720703-.7016602-1.9277344-.7016602-3.1669922,0-1.3896484.296875-2.5976562.8911133-3.6220703.59375-1.0244141,1.371582-1.8779297,2.3325195-2.5605469s2.0483398-1.1875,3.262207-1.5166016c1.2138672-.328125,2.4277344-.4931641,3.6411133-.4931641,1.4160156,0,2.7749023.1582031,4.0776367.4736328,1.3022461.3164062,2.4589844.8291016,3.4707031,1.5361328,1.0107422.7089844,1.8139648,1.6123047,2.4082031,2.7119141.5942383,1.1005859.8916016,2.4345703.8916016,4.0019531h-5.7651367c-.0512695-.8085938-.2216797-1.4794922-.512207-2.0097656-.2910156-.53125-.6767578-.9482422-1.1567383-1.2519531-.480957-.3037109-1.0307617-.5185547-1.6503906-.6445312-.6196289-.1269531-1.2958984-.1904297-2.0288086-.1904297-.480957,0-.9614258.0517578-1.4414062.1523438-.480957.1005859-.9169922.2783203-1.3085938.5302734-.3925781.2539062-.7148438.5693359-.9672852.9482422-.2529297.3798828-.3793945.8603516-.3793945,1.4414062,0,.53125.1005859.9619141.3037109,1.2900391.2016602.3291016.6000977.6318359,1.1943359.9101562s1.4160156.5566406,2.4658203.8349609c1.0488281.2783203,2.4208984.6318359,4.1152344,1.0615234.5053711.1015625,1.2070312.2841797,2.1049805.5498047.8974609.265625,1.7885742.6894531,2.6743164,1.2705078.8847656.5820312,1.6499023,1.3603516,2.2944336,2.3330078.6450195.9736328.9672852,2.21875.9672852,3.7363281,0,1.2392578-.2407227,2.3896484-.7207031,3.4511719-.4804688,1.0625-1.1948242,1.9794922-2.1430664,2.75-.9482422.7714844-2.1240234,1.3720703-3.5273438,1.8017578s-3.0283203.6445312-4.8740234.6445312c-1.4921875,0-2.9394531-.1835938-4.3427734-.5498047s-2.6425781-.9414062-3.7172852-1.7255859c-1.0751953-.7832031-1.9282227-1.7822266-2.5600586-2.9960938-.6323242-1.2138672-.9360352-2.6552734-.9106445-4.3242188h5.765625c0,.9101562.1640625,1.6816406.4931641,2.3134766Z"/>
    <path class="cls-1" d="M179.4345703,300.8789062v-5.0068359h22.1889648v5.0068359h-8.1171875v22.0751953h-5.9550781v-22.0751953h-8.1166992Z"/>
    <path class="cls-1" d="M215.0615234,295.8720703l10.1274414,27.0820312h-6.1826172l-2.0483398-6.03125h-10.1269531l-2.1245117,6.03125h-5.9926758l10.2412109-27.0820312h6.1064453ZM215.402832,312.4853516l-3.4135742-9.9375h-.0756836l-3.527832,9.9375h7.0170898Z"/>
    <path class="cls-1" d="M233.449707,295.8720703l11.3032227,18.1689453h.0756836v-18.1689453h5.5756836v27.0820312h-5.9550781l-11.2651367-18.1308594h-.0756836v18.1308594h-5.5756836v-27.0820312h5.9169922Z"/>
    <path class="cls-1" d="M267.2495117,295.8720703c1.7446289,0,3.3691406.2783203,4.8735352.8349609,1.5043945.5556641,2.8071289,1.390625,3.9072266,2.5029297,1.0996094,1.1132812,1.9589844,2.5029297,2.5791016,4.171875.6191406,1.6689453.9291992,3.6289062.9291992,5.8798828,0,1.9716797-.2529297,3.7929688-.7587891,5.4619141s-1.2705078,3.1103516-2.2944336,4.3232422c-1.0244141,1.2138672-2.3012695,2.1689453-3.8310547,2.8642578-1.5302734.6953125-3.3320312,1.0429688-5.4047852,1.0429688h-11.6826172v-27.0820312h11.6826172ZM266.8320312,317.9472656c.859375,0,1.6938477-.1386719,2.503418-.4169922.809082-.2783203,1.5297852-.7402344,2.1621094-1.3847656.6318359-.6445312,1.1376953-1.4853516,1.5170898-2.5224609.3793945-1.0361328.5688477-2.3007812.5688477-3.7929688,0-1.3652344-.1328125-2.5976562-.3984375-3.6982422-.2651367-1.0996094-.7016602-2.0410156-1.3081055-2.8251953-.6069336-.7841797-1.4101562-1.3847656-2.4086914-1.8017578-.9995117-.4169922-2.2319336-.6259766-3.6982422-.6259766h-4.2480469v17.0683594h5.3100586Z"/>
    <path class="cls-1" d="M295.8632812,295.8720703l10.1274414,27.0820312h-6.1826172l-2.0483398-6.03125h-10.1269531l-2.1245117,6.03125h-5.9926758l10.2412109-27.0820312h6.1064453ZM296.2045898,312.4853516l-3.4135742-9.9375h-.0756836l-3.527832,9.9375h7.0170898Z"/>
    <path class="cls-1" d="M322.9375,295.8720703c1.2138672,0,2.3071289.1962891,3.2807617.5878906.9731445.3925781,1.8076172.9296875,2.503418,1.6123047.6953125.6826172,1.2260742,1.4736328,1.5932617,2.3701172.3662109.8984375.5498047,1.8652344.5498047,2.9023438,0,1.5927734-.3354492,2.9707031-1.0048828,4.1337891-.6704102,1.1630859-1.7641602,2.0488281-3.28125,2.6552734v.0761719c.7333984.2021484,1.340332.5117188,1.8208008.9287109.4799805.4179688.8725586.9101562,1.1757812,1.4794922s.5244141,1.1953125.6635742,1.8779297c.1386719.6826172.2338867,1.3652344.284668,2.0478516.0249023.4306641.050293.9355469.0756836,1.5175781.0249023.5820312.0693359,1.1757812.1328125,1.7822266.0629883.6074219.1640625,1.1826172.3037109,1.7255859.1386719.5439453.347168,1.0058594.6254883,1.3847656h-5.9545898c-.3291016-.859375-.53125-1.8837891-.6069336-3.0722656-.0761719-1.1884766-.1899414-2.3261719-.3413086-3.4140625-.203125-1.4160156-.6328125-2.4521484-1.2900391-3.1103516-.6577148-.6572266-1.7319336-.9853516-3.2236328-.9853516h-5.9550781v10.5820312h-5.9550781v-27.0820312h14.6030273ZM320.8134766,308.1230469c1.3652344,0,2.3896484-.3027344,3.0722656-.9101562.6826172-.6064453,1.0239258-1.5927734,1.0239258-2.9580078,0-1.3144531-.3413086-2.2695312-1.0239258-2.8642578-.6826172-.59375-1.7070312-.890625-3.0722656-.890625h-6.5239258v7.6230469h6.5239258Z"/>
    <path class="cls-1" d="M347.2124023,295.8720703c1.7446289,0,3.3691406.2783203,4.8735352.8349609,1.5043945.5556641,2.8071289,1.390625,3.9072266,2.5029297,1.0996094,1.1132812,1.9589844,2.5029297,2.5791016,4.171875.6191406,1.6689453.9291992,3.6289062.9291992,5.8798828,0,1.9716797-.2529297,3.7929688-.7587891,5.4619141s-1.2705078,3.1103516-2.2944336,4.3232422c-1.0244141,1.2138672-2.3012695,2.1689453-3.8310547,2.8642578-1.5302734.6953125-3.3320312,1.0429688-5.4047852,1.0429688h-11.6826172v-27.0820312h11.6826172ZM346.7949219,317.9472656c.859375,0,1.6938477-.1386719,2.503418-.4169922.809082-.2783203,1.5297852-.7402344,2.1621094-1.3847656.6318359-.6445312,1.1376953-1.4853516,1.5170898-2.5224609.3793945-1.0361328.5688477-2.3007812.5688477-3.7929688,0-1.3652344-.1328125-2.5976562-.3984375-3.6982422-.2651367-1.0996094-.7016602-2.0410156-1.3081055-2.8251953-.6069336-.7841797-1.4101562-1.3847656-2.4086914-1.8017578-.9995117-.4169922-2.2319336-.6259766-3.6982422-.6259766h-4.2480469v17.0683594h5.3100586Z"/>
    <path class="cls-1" d="M367.9331055,316.2783203c.328125.6328125.7641602,1.1445312,1.3085938,1.5361328.543457.3925781,1.1816406.6826172,1.9150391.8720703.7333984.1904297,1.4916992.2851562,2.2758789.2851562.53125,0,1.1000977-.0439453,1.7070312-.1328125s1.1757812-.2587891,1.706543-.5126953c.53125-.2519531.9731445-.5996094,1.3276367-1.0429688.3540039-.4414062.53125-1.0048828.53125-1.6875,0-.7333984-.234375-1.3271484-.7016602-1.7822266-.4682617-.4560547-1.0810547-.8349609-1.8398438-1.1386719-.7583008-.3027344-1.6186523-.5683594-2.5791016-.7958984-.9614258-.2275391-1.9345703-.4804688-2.9204102-.7587891-1.0117188-.2529297-1.9980469-.5625-2.9584961-.9296875-.9614258-.3662109-1.8208008-.8398438-2.5795898-1.421875-.7583008-.5820312-1.3720703-1.3085938-1.8393555-2.1816406-.4682617-.8720703-.7016602-1.9277344-.7016602-3.1669922,0-1.3896484.296875-2.5976562.8911133-3.6220703.59375-1.0244141,1.371582-1.8779297,2.3325195-2.5605469s2.0483398-1.1875,3.262207-1.5166016c1.2138672-.328125,2.4277344-.4931641,3.6411133-.4931641,1.4160156,0,2.7749023.1582031,4.0776367.4736328,1.3022461.3164062,2.4589844.8291016,3.4707031,1.5361328,1.0107422.7089844,1.8139648,1.6123047,2.4082031,2.7119141.5942383,1.1005859.8916016,2.4345703.8916016,4.0019531h-5.7651367c-.0512695-.8085938-.2216797-1.4794922-.512207-2.0097656-.2910156-.53125-.6767578-.9482422-1.1567383-1.2519531-.480957-.3037109-1.0307617-.5185547-1.6503906-.6445312-.6196289-.1269531-1.2958984-.1904297-2.0288086-.1904297-.480957,0-.9614258.0517578-1.4414062.1523438-.480957.1005859-.9169922.2783203-1.3085938.5302734-.3925781.2539062-.7148438.5693359-.9672852.9482422-.2529297.3798828-.3793945.8603516-.3793945,1.4414062,0,.53125.1005859.9619141.3037109,1.2900391.2016602.3291016.6000977.6318359,1.1943359.9101562s1.4160156.5566406,2.4658203.8349609c1.0488281.2783203,2.4208984.6318359,4.1152344,1.0615234.5053711.1015625,1.2070312.2841797,2.1049805.5498047.8974609.265625,1.7885742.6894531,2.6743164,1.2705078.8847656.5820312,1.6499023,1.3603516,2.2944336,2.3330078.6450195.9736328.9672852,2.21875.9672852,3.7363281,0,1.2392578-.2407227,2.3896484-.7207031,3.4511719-.4804688,1.0625-1.1948242,1.9794922-2.1430664,2.75-.9482422.7714844-2.1240234,1.3720703-3.5273438,1.8017578s-3.0283203.6445312-4.8740234.6445312c-1.4921875,0-2.9394531-.1835938-4.3427734-.5498047s-2.6425781-.9414062-3.7172852-1.7255859c-1.0751953-.7832031-1.9282227-1.7822266-2.5600586-2.9960938-.6323242-1.2138672-.9360352-2.6552734-.9106445-4.3242188h5.765625c0,.9101562.1640625,1.6816406.4931641,2.3134766Z"/>
    <path class="cls-1" d="M412.0449219,295.8720703l10.1269531,27.0820312h-6.1816406l-2.0488281-6.03125h-10.1269531l-2.125,6.03125h-5.9921875l10.2412109-27.0820312h6.1064453ZM412.3867188,312.4853516l-3.4140625-9.9375h-.0761719l-3.5273438,9.9375h7.0175781Z"/>
    <path class="cls-1" d="M430.4335938,295.8720703l11.3027344,18.1689453h.0761719v-18.1689453h5.5751953v27.0820312h-5.9550781l-11.2646484-18.1308594h-.0761719v18.1308594h-5.5761719v-27.0820312h5.9179688Z"/>
    <path class="cls-1" d="M464.2324219,295.8720703c1.7451172,0,3.3691406.2783203,4.8740234.8349609,1.5048828.5556641,2.8076172,1.390625,3.9072266,2.5029297,1.0996094,1.1132812,1.9589844,2.5029297,2.5791016,4.171875.6191406,1.6689453.9287109,3.6289062.9287109,5.8798828,0,1.9716797-.2519531,3.7929688-.7578125,5.4619141s-1.2714844,3.1103516-2.2949219,4.3232422c-1.0244141,1.2138672-2.3007812,2.1689453-3.8310547,2.8642578s-3.3320312,1.0429688-5.4052734,1.0429688h-11.6816406v-27.0820312h11.6816406ZM463.8154297,317.9472656c.859375,0,1.6943359-.1386719,2.5029297-.4169922.8095703-.2783203,1.5302734-.7402344,2.1621094-1.3847656.6328125-.6445312,1.1386719-1.4853516,1.5175781-2.5224609.3789062-1.0361328.5683594-2.3007812.5683594-3.7929688,0-1.3652344-.1328125-2.5976562-.3984375-3.6982422-.2646484-1.0996094-.7011719-2.0410156-1.3076172-2.8251953s-1.4101562-1.3847656-2.4091797-1.8017578-2.2314453-.6259766-3.6972656-.6259766h-4.2480469v17.0683594h5.3095703Z"/>
    <path class="cls-1" d="M495.7519531,316.2783203c.328125.6328125.7646484,1.1445312,1.3085938,1.5361328.5439453.3925781,1.1816406.6826172,1.9160156.8720703.7324219.1904297,1.4912109.2851562,2.2753906.2851562.53125,0,1.0996094-.0439453,1.7070312-.1328125s1.1757812-.2587891,1.7070312-.5126953c.53125-.2519531.9726562-.5996094,1.3271484-1.0429688.3544922-.4414062.53125-1.0048828.53125-1.6875,0-.7333984-.234375-1.3271484-.7021484-1.7822266-.4677734-.4560547-1.0800781-.8349609-1.8398438-1.1386719-.7578125-.3027344-1.6181641-.5683594-2.578125-.7958984-.9619141-.2275391-1.9355469-.4804688-2.9208984-.7587891-1.0117188-.2529297-1.9980469-.5625-2.9580078-.9296875-.9619141-.3662109-1.8212891-.8398438-2.5800781-1.421875-.7578125-.5820312-1.3720703-1.3085938-1.8398438-2.1816406-.4677734-.8720703-.7011719-1.9277344-.7011719-3.1669922,0-1.3896484.296875-2.5976562.890625-3.6220703s1.3720703-1.8779297,2.3330078-2.5605469,2.0478516-1.1875,3.2626953-1.5166016c1.2128906-.328125,2.4277344-.4931641,3.640625-.4931641,1.4160156,0,2.7753906.1582031,4.078125.4736328,1.3017578.3164062,2.4589844.8291016,3.4707031,1.5361328,1.0097656.7089844,1.8134766,1.6123047,2.4082031,2.7119141.59375,1.1005859.890625,2.4345703.890625,4.0019531h-5.7646484c-.0517578-.8085938-.2216797-1.4794922-.5126953-2.0097656-.2910156-.53125-.6757812-.9482422-1.15625-1.2519531s-1.03125-.5185547-1.6503906-.6445312c-.6191406-.1269531-1.2958984-.1904297-2.0292969-.1904297-.4804688,0-.9609375.0517578-1.4414062.1523438s-.9160156.2783203-1.3085938.5302734c-.3925781.2539062-.7148438.5693359-.9667969.9482422-.2529297.3798828-.3789062.8603516-.3789062,1.4414062,0,.53125.0996094.9619141.3027344,1.2900391.2021484.3291016.6005859.6318359,1.1953125.9101562.59375.2783203,1.4160156.5566406,2.4648438.8349609s2.421875.6318359,4.1152344,1.0615234c.5058594.1015625,1.2070312.2841797,2.1054688.5498047.8974609.265625,1.7890625.6894531,2.6738281,1.2705078.8847656.5820312,1.6503906,1.3603516,2.2949219,2.3330078.6445312.9736328.9667969,2.21875.9667969,3.7363281,0,1.2392578-.2402344,2.3896484-.7207031,3.4511719-.4804688,1.0625-1.1943359,1.9794922-2.1425781,2.75-.9482422.7714844-2.1240234,1.3720703-3.5273438,1.8017578s-3.0283203.6445312-4.8740234.6445312c-1.4921875,0-2.9394531-.1835938-4.3427734-.5498047s-2.6425781-.9414062-3.7167969-1.7255859c-1.0761719-.7832031-1.9287109-1.7822266-2.5605469-2.9960938-.6328125-1.2138672-.9355469-2.6552734-.9101562-4.3242188h5.765625c0,.9101562.1640625,1.6816406.4921875,2.3134766Z"/>
    <path class="cls-1" d="M528.1171875,295.8720703c1.6933594,0,3.1347656.2470703,4.3242188.7392578,1.1875.4931641,2.1552734,1.1445312,2.9013672,1.9541016.7451172.8095703,1.2900391,1.7324219,1.6308594,2.7685547.3417969,1.0371094.5126953,2.1113281.5126953,3.2236328,0,1.0878906-.1708984,2.15625-.5126953,3.2050781-.3408203,1.0498047-.8857422,1.9794922-1.6308594,2.7880859-.7460938.8095703-1.7138672,1.4609375-2.9013672,1.9541016-1.1894531.4921875-2.6308594.7392578-4.3242188.7392578h-6.2578125v9.7099609h-5.9550781v-27.0820312h12.2128906ZM526.4863281,308.6162109c.6826172,0,1.3398438-.0498047,1.9726562-.1513672.6308594-.1005859,1.1875-.296875,1.6679688-.5878906.4804688-.2900391.8662109-.7021484,1.1572266-1.2324219.2900391-.53125.4365234-1.2265625.4365234-2.0869141,0-.8583984-.1464844-1.5546875-.4365234-2.0859375-.2910156-.5302734-.6767578-.9414062-1.1572266-1.2324219-.4804688-.2900391-1.0371094-.4863281-1.6679688-.5878906-.6328125-.1005859-1.2900391-.1513672-1.9726562-.1513672h-4.6269531v8.1162109h4.6269531Z"/>
    <path class="cls-1" d="M560.7177734,295.8720703v5.0068359h-14.2998047v5.8037109h13.1240234v4.6269531h-13.1240234v6.6376953h14.6035156v5.0068359h-20.5585938v-27.0820312h20.2548828Z"/>
    <path class="cls-1" d="M582.0195312,303.0976562c-.3554688-.5683594-.796875-1.0673828-1.328125-1.4980469-.53125-.4296875-1.1328125-.7646484-1.8017578-1.0048828-.6708984-.2402344-1.3720703-.3603516-2.1044922-.3603516-1.3417969,0-2.4785156.2597656-3.4140625.7773438-.9355469.5185547-1.6953125,1.2138672-2.2753906,2.0859375-.5820312.8720703-1.0058594,1.8652344-1.2714844,2.9775391-.265625,1.1132812-.3984375,2.2636719-.3984375,3.4521484,0,1.1376953.1328125,2.2441406.3984375,3.3183594.265625,1.0751953.6894531,2.0419922,1.2714844,2.9013672.5800781.8603516,1.3398438,1.5498047,2.2753906,2.0673828.9355469.5185547,2.0722656.7773438,3.4140625.7773438,1.8203125,0,3.2421875-.5556641,4.2666016-1.6689453,1.0244141-1.1123047,1.6494141-2.5791016,1.8779297-4.3994141h5.7646484c-.1513672,1.6943359-.5439453,3.2236328-1.1757812,4.5898438-.6318359,1.3652344-1.4667969,2.5283203-2.5029297,3.4892578-1.0371094.9609375-2.2519531,1.6943359-3.6416016,2.2001953-1.3916016.5048828-2.9208984.7578125-4.5888672.7578125-2.0742188,0-3.9394531-.3603516-5.5957031-1.0810547-1.65625-.7197266-3.0527344-1.7119141-4.1914062-2.9765625-1.1367188-1.2646484-2.0097656-2.75-2.6171875-4.4570312-.6064453-1.7070312-.9101562-3.546875-.9101562-5.5185547,0-2.0234375.3037109-3.9003906.9101562-5.6328125.6074219-1.7324219,1.4804688-3.2431641,2.6171875-4.5332031,1.1386719-1.2890625,2.5351562-2.3007812,4.1914062-3.0341797s3.5214844-1.0996094,5.5957031-1.0996094c1.4912109,0,2.9003906.2148438,4.2285156.6445312,1.328125.4306641,2.515625,1.0566406,3.5654297,1.8779297,1.0488281.8212891,1.9150391,1.8388672,2.5986328,3.0527344.6816406,1.2138672,1.1113281,2.6054688,1.2890625,4.1728516h-5.765625c-.1015625-.6826172-.328125-1.3085938-.6816406-1.8779297Z"/>
    <path class="cls-1" d="M598.4199219,295.8720703v27.0820312h-5.9550781v-27.0820312h5.9550781Z"/>
    <path class="cls-1" d="M622.6230469,295.8720703v5.0068359h-13.0859375v6.2587891h11.3408203v4.6269531h-11.3408203v11.1894531h-5.9550781v-27.0820312h19.0410156Z"/>
    <path class="cls-1" d="M631.6308594,295.8720703v27.0820312h-5.9550781v-27.0820312h5.9550781Z"/>
    <path class="cls-1" d="M654.1191406,303.0976562c-.3544922-.5683594-.796875-1.0673828-1.328125-1.4980469-.53125-.4296875-1.1318359-.7646484-1.8007812-1.0048828-.6708984-.2402344-1.3730469-.3603516-2.1054688-.3603516-1.3408203,0-2.4785156.2597656-3.4140625.7773438-.9355469.5185547-1.6943359,1.2138672-2.2753906,2.0859375-.5820312.8720703-1.0058594,1.8652344-1.2714844,2.9775391-.2646484,1.1132812-.3974609,2.2636719-.3974609,3.4521484,0,1.1376953.1328125,2.2441406.3974609,3.3183594.265625,1.0751953.6894531,2.0419922,1.2714844,2.9013672.5810547.8603516,1.3398438,1.5498047,2.2753906,2.0673828.9355469.5185547,2.0732422.7773438,3.4140625.7773438,1.8203125,0,3.2421875-.5556641,4.2675781-1.6689453,1.0234375-1.1123047,1.6494141-2.5791016,1.8769531-4.3994141h5.765625c-.1523438,1.6943359-.5449219,3.2236328-1.1757812,4.5898438-.6328125,1.3652344-1.4667969,2.5283203-2.5039062,3.4892578s-2.2509766,1.6943359-3.640625,2.2001953c-1.3916016.5048828-2.9208984.7578125-4.5898438.7578125-2.0742188,0-3.9394531-.3603516-5.5947266-1.0810547-1.6572266-.7197266-3.0537109-1.7119141-4.1914062-2.9765625s-2.0107422-2.75-2.6171875-4.4570312-.9101562-3.546875-.9101562-5.5185547c0-2.0234375.3037109-3.9003906.9101562-5.6328125s1.4794922-3.2431641,2.6171875-4.5332031c1.1376953-1.2890625,2.5341797-2.3007812,4.1914062-3.0341797,1.6552734-.7333984,3.5205078-1.0996094,5.5947266-1.0996094,1.4921875,0,2.9013672.2148438,4.2285156.6445312,1.328125.4306641,2.515625,1.0566406,3.5664062,1.8779297,1.0488281.8212891,1.9150391,1.8388672,2.5976562,3.0527344s1.1123047,2.6054688,1.2890625,4.1728516h-5.7646484c-.1015625-.6826172-.3291016-1.3085938-.6826172-1.8779297Z"/>
    <path class="cls-1" d="M677.3398438,295.8720703l10.1269531,27.0820312h-6.1826172l-2.0478516-6.03125h-10.1269531l-2.125,6.03125h-5.9921875l10.2402344-27.0820312h6.1074219ZM677.6806641,312.4853516l-3.4130859-9.9375h-.0761719l-3.5273438,9.9375h7.0166016Z"/>
    <path class="cls-1" d="M684.5615234,300.8789062v-5.0068359h22.1884766v5.0068359h-8.1171875v22.0751953h-5.9550781v-22.0751953h-8.1162109Z"/>
    <path class="cls-1" d="M715.4101562,295.8720703v27.0820312h-5.9550781v-27.0820312h5.9550781Z"/>
    <path class="cls-1" d="M720.2607422,303.8945312c.6064453-1.7324219,1.4794922-3.2431641,2.6171875-4.5332031,1.1376953-1.2890625,2.5341797-2.3007812,4.1914062-3.0341797,1.6552734-.7333984,3.5205078-1.0996094,5.5947266-1.0996094,2.0986328,0,3.96875.3662109,5.6132812,1.0996094,1.6435547.7333984,3.0351562,1.7451172,4.171875,3.0341797,1.1386719,1.2900391,2.0107422,2.8007812,2.6171875,4.5332031.6074219,1.7324219.9111328,3.609375.9111328,5.6328125,0,1.9716797-.3037109,3.8115234-.9111328,5.5185547-.6064453,1.7070312-1.4785156,3.1923828-2.6171875,4.4570312-1.1367188,1.2646484-2.5283203,2.2568359-4.171875,2.9765625-1.6445312.7207031-3.5146484,1.0810547-5.6132812,1.0810547-2.0742188,0-3.9394531-.3603516-5.5947266-1.0810547-1.6572266-.7197266-3.0537109-1.7119141-4.1914062-2.9765625s-2.0107422-2.75-2.6171875-4.4570312-.9101562-3.546875-.9101562-5.5185547c0-2.0234375.3037109-3.9003906.9101562-5.6328125ZM725.703125,312.8457031c.265625,1.0751953.6894531,2.0419922,1.2714844,2.9013672.5810547.8603516,1.3398438,1.5498047,2.2753906,2.0673828.9355469.5185547,2.0732422.7773438,3.4140625.7773438,1.3398438,0,2.4775391-.2587891,3.4140625-.7773438.9345703-.5175781,1.6933594-1.2070312,2.2753906-2.0673828.5810547-.859375,1.0048828-1.8261719,1.2705078-2.9013672.265625-1.0742188.3984375-2.1806641.3984375-3.3183594,0-1.1884766-.1328125-2.3388672-.3984375-3.4521484-.265625-1.1123047-.6894531-2.1054688-1.2705078-2.9775391-.5820312-.8720703-1.3408203-1.5673828-2.2753906-2.0859375-.9365234-.5175781-2.0742188-.7773438-3.4140625-.7773438-1.3408203,0-2.4785156.2597656-3.4140625.7773438-.9355469.5185547-1.6943359,1.2138672-2.2753906,2.0859375-.5820312.8720703-1.0058594,1.8652344-1.2714844,2.9775391-.2646484,1.1132812-.3974609,2.2636719-.3974609,3.4521484,0,1.1376953.1328125,2.2441406.3974609,3.3183594Z"/>
    <path class="cls-1" d="M755.7636719,295.8720703l11.3027344,18.1689453h.0761719v-18.1689453h5.5751953v27.0820312h-5.9550781l-11.2646484-18.1308594h-.0761719v18.1308594h-5.5761719v-27.0820312h5.9179688Z"/>
    <path class="cls-1" d="M782.5527344,316.2783203c.328125.6328125.7646484,1.1445312,1.3085938,1.5361328.5439453.3925781,1.1816406.6826172,1.9160156.8720703.7324219.1904297,1.4912109.2851562,2.2753906.2851562.53125,0,1.0996094-.0439453,1.7070312-.1328125s1.1757812-.2587891,1.7070312-.5126953c.53125-.2519531.9726562-.5996094,1.3271484-1.0429688.3544922-.4414062.53125-1.0048828.53125-1.6875,0-.7333984-.234375-1.3271484-.7021484-1.7822266-.4677734-.4560547-1.0800781-.8349609-1.8398438-1.1386719-.7578125-.3027344-1.6181641-.5683594-2.578125-.7958984-.9619141-.2275391-1.9355469-.4804688-2.9208984-.7587891-1.0117188-.2529297-1.9980469-.5625-2.9580078-.9296875-.9619141-.3662109-1.8212891-.8398438-2.5800781-1.421875-.7578125-.5820312-1.3720703-1.3085938-1.8398438-2.1816406-.4677734-.8720703-.7011719-1.9277344-.7011719-3.1669922,0-1.3896484.296875-2.5976562.890625-3.6220703s1.3720703-1.8779297,2.3330078-2.5605469,2.0478516-1.1875,3.2626953-1.5166016c1.2128906-.328125,2.4277344-.4931641,3.640625-.4931641,1.4160156,0,2.7753906.1582031,4.078125.4736328,1.3017578.3164062,2.4589844.8291016,3.4707031,1.5361328,1.0097656.7089844,1.8134766,1.6123047,2.4082031,2.7119141.59375,1.1005859.890625,2.4345703.890625,4.0019531h-5.7646484c-.0517578-.8085938-.2216797-1.4794922-.5126953-2.0097656-.2910156-.53125-.6757812-.9482422-1.15625-1.2519531s-1.03125-.5185547-1.6503906-.6445312c-.6191406-.1269531-1.2958984-.1904297-2.0292969-.1904297-.4804688,0-.9609375.0517578-1.4414062.1523438s-.9160156.2783203-1.3085938.5302734c-.3925781.2539062-.7148438.5693359-.9667969.9482422-.2529297.3798828-.3789062.8603516-.3789062,1.4414062,0,.53125.0996094.9619141.3027344,1.2900391.2021484.3291016.6005859.6318359,1.1953125.9101562.59375.2783203,1.4160156.5566406,2.4648438.8349609s2.421875.6318359,4.1152344,1.0615234c.5058594.1015625,1.2070312.2841797,2.1054688.5498047.8974609.265625,1.7890625.6894531,2.6738281,1.2705078.8847656.5820312,1.6503906,1.3603516,2.2949219,2.3330078.6445312.9736328.9667969,2.21875.9667969,3.7363281,0,1.2392578-.2402344,2.3896484-.7207031,3.4511719-.4804688,1.0625-1.1943359,1.9794922-2.1425781,2.75-.9482422.7714844-2.1240234,1.3720703-3.5273438,1.8017578s-3.0283203.6445312-4.8740234.6445312c-1.4921875,0-2.9394531-.1835938-4.3427734-.5498047s-2.6425781-.9414062-3.7167969-1.7255859c-1.0761719-.7832031-1.9287109-1.7822266-2.5605469-2.9960938-.6328125-1.2138672-.9355469-2.6552734-.9101562-4.3242188h5.765625c0,.9101562.1640625,1.6816406.4921875,2.3134766Z"/>
  </g>
</svg>