<?xml version="1.0" encoding="UTF-8"?>
<svg id="Layer_1" data-name="Layer 1" xmlns="http://www.w3.org/2000/svg" viewBox="0 0 400 230">
  <defs>
    <style>
      .cls-1 {
        fill: #fff;
      }
    </style>
  </defs>
  <g>
    <path class="cls-1" d="M205.02,57.88l-2.6,4.48,2.6,4.48,10.26,17.78,2.11,3.66,9.69,16.79.84,1.45,1.1,1.9,1.15,1.97c-1.55.07-2.88.96-3.56,2.26l-1.18-2.02-1.11-1.94-.71-1.21-9.86-17.09-2.11-3.66-10.26-17.76-2.6-4.5h-55.82c.37-.61.57-1.33.57-2.11s-.2-1.5-.57-2.11h55.82l2.6-4.5,10.26-17.76,2.11-3.66,9.02-15.62,2.12-3.66.07-.13,2.02-3.51.15-.25s.05.07.08.1c.78.84,1.89,1.38,3.12,1.38.1,0,.2,0,.3-.02.19,0,.37-.03.54-.07l-.29.51-1.7,2.95-.4.69-1.7,2.95-9.69,16.79-2.11,3.66-10.26,17.78Z"/>
    <path class="cls-1" d="M230.34,118.83h2.26l.69-1.2c-.76.74-1.8,1.2-2.95,1.2ZM226.12,8.43c0-.94.32-1.84.84-2.53h-59.56l-4.42,7.65-23.33,40.4-2.95,5.11c.71-.57,1.62-.91,2.61-.91.64,0,1.25.15,1.79.4.46.22.88.51,1.23.86l1.37-2.36.78-1.35,22.69-39.29,3.15-5.46h56.65c-.35-.47-.62-1.03-.74-1.65-.07-.29-.1-.57-.1-.88ZM135.16,61.76l-.35.61.35.61c-.03-.2-.05-.4-.05-.61s.02-.4.05-.61ZM226.56,116.48c-.29-.56-.44-1.2-.44-1.87,0-.27.02-.52.07-.78.02-.03.02-.05.02-.07h-55.89l-3.96-6.86-21.83-37.79-.05-.1-2.04-3.52-.1-.19s-.07.05-.08.07c-.59.57-1.33.98-2.16,1.13-.25.05-.51.07-.78.07-.99,0-1.9-.34-2.61-.91l2.95,5.11,22.79,39.47,4.96,8.58h62.94c-1.65,0-3.08-.96-3.78-2.34ZM260.34,53.95l-23.33-40.4-2.53-4.38c-.13.83-.52,1.57-1.08,2.14-.56.61-1.3,1.03-2.11,1.21-.03.02-.07.02-.12.03-.17.03-.35.07-.54.07l.25.44.4.69,1.57,2.73.54.93,22.13,38.31,3.83,6.64-3.83,6.64-21.86,37.86-.27.47-1.87,3.24c.72.22,1.38.64,1.87,1.18.71.76,1.15,1.77,1.15,2.87,0,.37-.05.74-.13,1.08l3.14-5.44,22.79-39.47,4.85-8.41-4.85-8.41Z"/>
    <path class="cls-1" d="M260.68,53.93c-.12,0-.24,0-.34.02-1.82.07-3.47.71-4.8,1.77-.66.47-1.23,1.08-1.7,1.75l-20.43-11.8-2.11-1.21-2.11-1.21-2.11-1.21-9.69-5.6-3.64-2.11-9.03-5.21-2.11-1.21-2.11-1.21-2.17-1.25-21.59-12.47c.4-.62.72-1.3.96-2.02.25-.79.39-1.63.39-2.53s-.13-1.72-.37-2.53c-1.08-3.42-4.28-5.9-8.06-5.9-4.65,0-8.43,3.78-8.43,8.43,0,1.94.66,3.71,1.75,5.12,1.04,1.35,2.49,2.36,4.18,2.87.54.19,1.11.3,1.69.35v89.5c-.88.08-1.72.3-2.49.64-1.62.67-2.98,1.85-3.91,3.34-.76,1.26-1.21,2.76-1.21,4.37,0,4.65,3.78,8.43,8.43,8.43,3.12,0,5.83-1.69,7.3-4.21.72-1.23,1.13-2.68,1.13-4.21,0-.29-.02-.57-.05-.84-.08-.86-.29-1.67-.61-2.43l20.11-11.61,2.11-1.21,2.11-1.21,2.12-1.21,9.88-5.7,3.64-2.11,9.69-5.6,2.11-1.21,2.11-1.21,2.11-1.21,20.43-11.8c.47.67,1.04,1.28,1.7,1.75,1.33,1.06,2.98,1.7,4.8,1.77.1.02.22.02.34.02,4.65,0,8.43-3.78,8.43-8.43s-3.78-8.43-8.43-8.43ZM252.33,63.24l-18.93,10.92-2.11,1.21-2.11,1.23-2.11,1.21-11.8,6.81-3.64,2.11-12,6.91-2.12,1.23-2.09,1.21-2.09,1.21-18.52,10.69c-.54-.42-1.11-.79-1.75-1.06V16.11c.13-.05.24-.12.35-.19l20.71,11.95,2.16,1.25,2.11,1.21,2.11,1.23,11.14,6.42,3.64,2.11,11.8,6.81,2.11,1.23,2.11,1.21,2.11,1.21,18.93,10.92c-.03.29-.08.57-.08.88s.05.59.08.88Z"/>
    <circle class="cls-1" cx="200" cy="62.36" r="6.74"/>
    <path class="cls-1" d="M233.68,106.86c-.08-.03-.17-.07-.27-.1V16.28c1.45-.57,2.7-1.52,3.61-2.73,1.11-1.42,1.75-3.2,1.75-5.12,0-4.65-3.78-8.43-8.43-8.43-3.78,0-6.98,2.48-8.06,5.9-.24.81-.37,1.65-.37,2.53s.13,1.72.37,2.53c.05.17.12.35.19.52l-24.14,13.97-4.2,2.43-21.07,12.19-4.21,2.44-23.73,13.74c-.2-.19-.42-.37-.64-.54-1.33-1.04-3-1.69-4.82-1.75-.12-.02-.22-.02-.34-.02-4.65,0-8.43,3.78-8.43,8.43s3.78,8.43,8.43,8.43c.12,0,.22,0,.34-.02,1.8-.07,3.46-.69,4.77-1.72l.1.07,24.32,14.04,4.21,2.43,20.28,11.71,4.2,2.43,23.85,13.77.47.27.1.05c-.03.25-.05.52-.05.79,0,1.53.4,2.98,1.13,4.21,1.47,2.53,4.18,4.21,7.3,4.21,4.65,0,8.43-3.78,8.43-8.43,0-1.6-.44-3.1-1.21-4.37-.91-1.5-2.26-2.68-3.88-3.39ZM226.97,5.9c.78-1.03,1.99-1.69,3.37-1.69,2.33,0,4.21,1.89,4.21,4.21,0,.25-.02.51-.07.74-.13.83-.52,1.57-1.08,2.14-.56.61-1.3,1.03-2.11,1.21-.03.02-.07.02-.12.03-.17.03-.35.07-.54.07-.1.02-.2.02-.3.02-1.23,0-2.34-.54-3.12-1.38-.03-.03-.07-.07-.08-.1-.07-.07-.12-.13-.17-.2-.35-.47-.62-1.03-.74-1.65-.07-.29-.1-.57-.1-.88,0-.94.32-1.84.84-2.53ZM139.32,66.58c-.99,0-1.9-.34-2.61-.91-.83-.66-1.4-1.6-1.55-2.7-.03-.2-.05-.4-.05-.61s.02-.4.05-.61c.15-1.1.72-2.04,1.55-2.7.71-.57,1.62-.91,2.61-.91.64,0,1.25.15,1.79.4.46.22.88.51,1.23.86.17.19.34.37.47.59.07.08.12.17.15.25.37.61.57,1.33.57,2.11s-.2,1.5-.57,2.11c-.17.32-.39.59-.62.84-.03.02-.07.05-.08.07-.59.57-1.33.98-2.16,1.13-.25.05-.51.07-.78.07ZM224.32,108.7c-.34.34-.64.71-.91,1.11l-21.66-12.51-4.23-2.43-24.46-14.12-4.21-2.43-21.81-12.59c.19-.4.32-.83.44-1.26.07-.27.13-.56.17-.84.07-.4.1-.83.1-1.26,0-.12,0-.22-.02-.34-.02-.61-.1-1.2-.25-1.77-.03-.15-.08-.29-.13-.44l21.51-12.42,4.21-2.43,25.33-14.63,4.21-2.43,22.28-12.86.13-.08c.62.52,1.31.93,2.06,1.25.54.22,1.11.39,1.7.49.13.03.27.05.4.07v89.48c-.44.07-.86.15-1.26.27-.29.1-.56.2-.84.3-.81.35-1.57.81-2.22,1.38-.19.15-.35.32-.54.49ZM234.42,115.69c-.2.74-.59,1.42-1.13,1.94-.76.74-1.8,1.2-2.95,1.2-1.65,0-3.08-.96-3.78-2.34-.29-.56-.44-1.2-.44-1.87,0-.27.02-.52.07-.78.02-.03.02-.05.02-.07.08-.4.22-.78.4-1.11.67-1.3,2.01-2.19,3.56-2.26h.17c.34,0,.66.03.96.12.08.02.15.03.24.05.72.22,1.38.64,1.87,1.18.71.76,1.15,1.77,1.15,2.87,0,.37-.05.74-.13,1.08Z"/>
  </g>
  <g>
    <polygon class="cls-1" points="91.62 161.94 91.62 150.74 85.98 150.74 85.98 167.49 102.72 167.49 102.72 161.94 91.62 161.94"/>
    <polygon class="cls-1" points="113.92 139.54 85.98 139.54 85.98 147.86 91.53 147.86 91.53 145.09 108.37 145.09 108.37 161.94 105.6 161.94 105.6 167.49 113.92 167.49 113.92 139.54"/>
    <g>
      <path class="cls-1" d="M121.36,139.84h8.52v20.52h12.19v7.04h-20.71v-27.55h0Z"/>
      <path class="cls-1" d="M145.74,139.84h21.41v7.04h-12.88v3.47h11v6.54h-11v10.51h-8.52v-27.55Z"/>
    </g>
    <path class="cls-1" d="M189.05,167.59h-15.46v-27.85h15.46v1.78h-13.48v10.51h12.69v1.78h-12.69v11.89h13.48v1.88Z"/>
    <path class="cls-1" d="M216.01,167.59h-1.98l-16.75-24.68h-.2c.2,2.97.2,5.15.2,6.64v18.04h-1.78v-27.85h1.98l16.75,24.68h.1c-.1-2.28-.2-4.46-.2-6.54v-18.14h1.88v27.85h0Z"/>
    <path class="cls-1" d="M239.4,167.59h-15.46v-27.85h15.46v1.78h-13.48v10.51h12.69v1.78h-12.69v11.89h13.48v1.88Z"/>
    <path class="cls-1" d="M247.82,155.5v12.09h-1.98v-27.85h6.74c3.47,0,6.05.59,7.73,1.88,1.68,1.29,2.48,3.17,2.48,5.75,0,1.88-.5,3.47-1.49,4.76s-2.48,2.18-4.56,2.78l7.63,12.69h-2.38l-7.23-12.09h-6.94ZM247.82,153.81h5.35c2.38,0,4.26-.5,5.55-1.59,1.29-1.09,1.98-2.58,1.98-4.66s-.59-3.67-1.88-4.66-3.37-1.49-6.34-1.49h-4.66v12.39Z"/>
    <path class="cls-1" d="M280.13,153.32h10.21v12.39c-2.68,1.09-5.65,1.68-9.02,1.68-4.36,0-7.73-1.19-10.01-3.67s-3.47-5.85-3.47-10.31c0-2.78.59-5.25,1.68-7.33,1.19-2.18,2.78-3.77,4.96-4.96,2.18-1.19,4.66-1.78,7.43-1.78,2.97,0,5.75.59,8.13,1.68l-.79,1.68c-2.38-1.09-4.86-1.68-7.43-1.68-3.67,0-6.54,1.09-8.62,3.37-2.08,2.28-3.17,5.25-3.17,8.92,0,4.06.99,7.14,3.07,9.22,1.98,2.08,4.96,3.07,8.92,3.07,2.58,0,4.66-.4,6.44-1.09v-9.61h-8.23v-1.59h-.1Z"/>
    <path class="cls-1" d="M303.72,154.9l8.23-15.16h2.08l-9.32,16.95v10.7h-1.98v-10.51l-9.42-17.15h2.28l8.13,15.16Z"/>
  </g>
  <g>
    <path class="cls-1" d="M180.12,211.52v1.03c0,8.83-3.56,17.45-15.06,17.45-12.32,0-16.15-7.94-16.15-25.39s3.83-25.39,16.22-25.39c13.89,0,14.72,10.27,14.72,15.33v.89h-7.8v-.82c0-4.52-1.37-9.72-6.98-9.51-5.75,0-8.35,3.56-8.35,19.3s2.6,19.71,8.35,19.71c6.5,0,7.26-7.26,7.26-11.77v-.82h7.8Z"/>
    <path class="cls-1" d="M184.9,180.17h13.89c15.33,0,17.25,9.99,17.25,24.44s-1.92,24.44-17.25,24.44h-13.89v-48.87ZM192.7,223.16h6.43c6.43,0,9.1-4.24,9.1-18.55s-2.33-18.55-9.1-18.55h-6.43v37.1Z"/>
    <path class="cls-1" d="M227.89,213.91v1.23c0,5.95,2.6,8.97,8.01,8.97,4.93,0,7.39-3.49,7.39-7.12,0-5.13-2.6-7.39-6.98-8.69l-5.34-1.85c-7.12-2.74-10.2-6.43-10.2-13.41,0-8.9,6.02-13.83,15.2-13.83,12.53,0,13.83,7.8,13.83,12.87v1.1h-7.8v-1.03c0-4.45-1.98-7.05-6.84-7.05-3.35,0-6.57,1.85-6.57,7.05,0,4.18,2.12,6.3,7.32,8.28l5.27,1.92c6.91,2.46,9.92,6.23,9.92,12.94,0,10.4-6.3,14.72-16.15,14.72-12.12,0-14.85-8.08-14.85-14.92v-1.16h7.8Z"/>
  </g>
</svg>